<?xml version="1.0" encoding="UTF-8" standalone="no"?>
<svg
   xmlns:dc="http://purl.org/dc/elements/1.1/"
   xmlns:cc="http://creativecommons.org/ns#"
   xmlns:rdf="http://www.w3.org/1999/02/22-rdf-syntax-ns#"
   xmlns:svg="http://www.w3.org/2000/svg"
   xmlns="http://www.w3.org/2000/svg"
   id="svg42"
   version="1.1"
   height="180"
   width="1024">
  <metadata
     id="metadata48">
    <rdf:RDF>
      <cc:Work
         rdf:about="">
        <dc:format>image/svg+xml</dc:format>
        <dc:type
           rdf:resource="http://purl.org/dc/dcmitype/StillImage" />
      </cc:Work>
    </rdf:RDF>
  </metadata>
  <defs
     id="defs46" />
  <g
     id="g5">
    <title
       id="title2">background</title>
    <path
       id="canvas_background"
       d="M -1,-1 H 1025 V 181 H -1 Z"
       style="fill:none" />
  </g>
  <g
     id="g40">
    <title
       id="title7">Layer 1</title>
    <g
       id="logo-group"
       transform="translate(-0.999995,-251.04674)">
      <path
         style="fill:#a6a5a2;stroke-width:0;stroke-miterlimit:2"
         id="path217264"
         d="m 468.22155,402.03001 9.672,7.656 10.008,-7.656 v 18.024 h -1.008 v -15.672 l -9,6.648 -8.664,-6.648 v 15.672 h -1.008 z"
         stroke-miterlimit="2" />
      <path
         style="fill:#a6a5a2;stroke-width:0;stroke-miterlimit:2"
         id="path217266"
         d="m 492.88155,402.03001 9.672,7.656 10.008,-7.656 v 18.024 h -1.008 v -15.672 l -9,6.648 -8.664,-6.648 v 15.672 h -1.008 z"
         stroke-miterlimit="2" />
      <path
         style="fill:#a6a5a2;stroke-width:0;stroke-miterlimit:2"
         id="path217268"
         d="m 527.26155,402.03001 q 1.2,0.072 2.16,0.6 0.408,0.216 0.792,0.576 0.408,0.36 0.696,0.888 0.31201,0.504 0.50401,1.2 0.192,0.696 0.192,1.608 0,0.912 -0.192,1.608 -0.192,0.672 -0.50401,1.2 -0.288,0.504 -0.696,0.864 -0.38399,0.336 -0.792,0.552 -0.95999,0.528 -2.16,0.6 h -8.712 v 8.328 h -1.008 v -9.336 h 9.384 q 1.032,-0.048 1.824,-0.48 0.336,-0.168 0.672,-0.432 0.336,-0.288 0.6,-0.696 0.264,-0.408 0.408,-0.936 0.168,-0.552 0.168,-1.272 0,-0.72 -0.168,-1.272 -0.144,-0.552 -0.408,-0.96 -0.264,-0.408 -0.6,-0.672 -0.336,-0.288 -0.672,-0.48 -0.792,-0.432 -1.824,-0.48 h -9.384 v -1.008 z"
         stroke-miterlimit="2" />
      <path
         style="fill:#a6a5a2;stroke-width:0;stroke-miterlimit:2"
         id="path217270"
         d="m 536.10155,402.03001 9.672,7.656 10.008,-7.656 v 18.024 h -1.008 v -15.672 l -9,6.648 -8.664,-6.648 v 15.672 h -1.008 z"
         stroke-miterlimit="2" />
      <path
         style="fill:#ccc09c;stroke:#ccc09c;stroke-width:3.81299996;stroke-miterlimit:2"
         id="path217273"
         d="m 250.39155,265.00001 26.985,21.36 27.922,-21.36 v 50.287 h -2.8123 v -43.725 l -25.11,18.548 -24.173,-18.548 v 43.725 h -2.8123 z"
         stroke-miterlimit="2" />
      <path
         style="fill:#ccc09c;stroke:#ccc09c;stroke-width:3.81299996;stroke-miterlimit:2"
         id="path217275"
         d="m 314.70155,315.29001 24.507,-50.287 24.507,50.287 h -2.6784 l -6.5621,-13.191 h -30.534 l -6.5621,13.191 z m 10.379,-15.736 h 28.19 l -14.062,-28.86 z"
         stroke-miterlimit="2" />
      <path
         style="fill:#ccc09c;stroke:#ccc09c;stroke-width:3.81299996;stroke-miterlimit:2"
         id="path217277"
         d="m 391.78155,315.29001 q -5.1559,0 -9.7762,-2.0088 -4.5533,-2.0088 -7.9682,-5.4238 -3.415,-3.415 -5.4238,-7.9682 -2.0088,-4.5533 -2.0088,-9.7092 0,-5.1559 2.0088,-9.7092 2.0088,-4.6202 5.4238,-8.0352 3.415,-3.415 7.9682,-5.4238 4.6202,-2.0088 9.7762,-2.0088 9.1735,0 16.07,5.7586 l -2.0088,1.674 q -3.0132,-2.4775 -6.5621,-3.5489 -3.4819,-1.0714 -7.4995,-1.0714 -4.6202,0 -8.7048,1.741 -4.0846,1.741 -7.1647,4.7542 -3.0132,3.0132 -4.7542,7.0978 -1.741,4.0846 -1.741,8.7718 0,4.6202 1.741,8.7048 1.741,4.0846 4.7542,7.0978 3.0132,3.0132 7.0978,4.7542 4.0846,1.741 8.7718,1.741 3.6828,0 7.1647,-1.0714 3.5489,-1.0714 7.3656,-4.0846 v -13.861 h -11.182 v -2.8123 h 13.995 v 17.811 q -0.93744,0.73656 -2.6114,1.9418 -1.674,1.1383 -3.9506,2.2766 -2.2766,1.0714 -5.022,1.8749 -2.6784,0.73656 -5.7586,0.73656 z"
         stroke-miterlimit="2" />
      <path
         style="fill:#ccc09c;stroke:#ccc09c;stroke-width:3.81299996;stroke-miterlimit:2"
         id="path217279"
         d="m 423.29155,265.00001 v 50.287 h -2.7454 v -50.287 z"
         stroke-miterlimit="2" />
      <path
         style="fill:#ccc09c;stroke:#ccc09c;stroke-width:3.81299996;stroke-miterlimit:2"
         id="path217281"
         d="m 457.71155,315.29001 q -5.1559,0 -9.7092,-2.0088 -4.5533,-2.0088 -7.9682,-5.4238 -3.415,-3.415 -5.4238,-7.9682 -2.0088,-4.5533 -2.0088,-9.7092 0,-5.1559 1.9418,-9.7092 2.0088,-4.6202 5.4238,-8.0352 3.415,-3.415 7.9682,-5.4238 4.6202,-2.0088 9.7762,-2.0088 9.0396,0 15.468,5.3568 l -1.741,1.8079 q -3.0132,-2.3436 -6.3612,-3.348 -3.348,-1.0044 -7.3656,-1.0044 -4.6872,0 -8.7718,1.741 -4.0176,1.741 -7.0308,4.7542 -3.0132,3.0132 -4.7542,7.0978 -1.741,4.0846 -1.741,8.8387 0,4.6872 1.741,8.7718 1.741,4.0176 4.7542,7.0308 3.0802,3.0132 7.0978,4.7542 4.0846,1.674 8.7048,1.674 3.7498,0 7.0308,-0.93744 3.281,-0.93744 6.2273,-3.0802 l 1.9418,1.741 q -6.4951,5.089 -15.2,5.089 z"
         stroke-miterlimit="2" />
      <path
         style="fill:#ccc09c;stroke:#ccc09c;stroke-width:3.81299996;stroke-miterlimit:2"
         id="path217283"
         d="m 486.72155,265.00001 26.985,21.36 27.922,-21.36 v 50.287 h -2.8123 v -43.725 l -25.11,18.548 -24.173,-18.548 v 43.725 h -2.8123 z"
         stroke-miterlimit="2" />
      <path
         style="fill:#ccc09c;stroke:#ccc09c;stroke-width:3.81299996;stroke-miterlimit:2"
         id="path217285"
         d="m 558.25155,265.00001 v 50.287 h -2.7454 v -50.287 z"
         stroke-miterlimit="2" />
      <path
         style="fill:#ccc09c;stroke:#ccc09c;stroke-width:3.81299996;stroke-miterlimit:2"
         id="path217287"
         d="m 572.12155,265.00001 h 26.985 q 3.6158,0.20088 6.4951,1.674 1.2053,0.60264 2.3436,1.607 1.2053,1.0044 2.0758,2.4775 0.93744,1.4062 1.4731,3.348 0.60264,1.9418 0.60264,4.4863 0,2.5445 -0.60264,4.4863 -0.60264,1.8749 -1.607,3.348 -1.0044,1.4062 -2.2766,2.4106 -1.2722,0.93744 -2.5445,1.5401 -3.0802,1.4731 -6.9638,1.674 l 12.187,23.235 h -3.0132 l -12.187,-23.235 h -20.155 v 23.235 h -2.8123 z m 2.8123,24.24 h 24.173 q 2.8793,-0.13392 5.089,-1.3392 0.93744,-0.46872 1.8749,-1.2053 0.93744,-0.80352 1.607,-1.9418 0.73656,-1.1383 1.1383,-2.6114 0.46872,-1.5401 0.46872,-3.5489 0,-2.0088 -0.46872,-3.5489 -0.40176,-1.5401 -1.1383,-2.6784 -0.6696,-1.1383 -1.607,-1.8749 -0.93744,-0.80352 -1.8749,-1.3392 -2.2097,-1.2053 -5.089,-1.3392 h -24.173 z"
         stroke-miterlimit="2" />
      <path
         style="fill:#ccc09c;stroke:#ccc09c;stroke-width:3.81299996;stroke-miterlimit:2"
         id="path217289"
         d="m 624.56155,265.00001 h 26.985 q 3.6158,0.20088 6.4951,1.674 1.2053,0.60264 2.3436,1.607 1.2053,1.0044 2.0758,2.4775 0.93744,1.4062 1.4731,3.348 0.60264,1.9418 0.60264,4.4863 0,2.5445 -0.60264,4.4863 -0.60264,1.8749 -1.607,3.348 -1.0044,1.4062 -2.2766,2.4106 -1.2722,0.93744 -2.5445,1.5401 -3.0802,1.4731 -6.9638,1.674 l 12.187,23.235 h -3.0132 l -12.187,-23.235 h -20.155 v 23.235 h -2.8123 z m 2.8123,24.24 h 24.173 q 2.8793,-0.13392 5.089,-1.3392 0.93744,-0.46872 1.8749,-1.2053 0.93744,-0.80352 1.607,-1.9418 0.73656,-1.1383 1.1383,-2.6114 0.46872,-1.5401 0.46872,-3.5489 0,-2.0088 -0.46872,-3.5489 -0.40176,-1.5401 -1.1383,-2.6784 -0.6696,-1.1383 -1.607,-1.8749 -0.93744,-0.80352 -1.8749,-1.3392 -2.2097,-1.2053 -5.089,-1.3392 h -24.173 z"
         stroke-miterlimit="2" />
      <path
         style="fill:#ccc09c;stroke:#ccc09c;stroke-width:3.81299996;stroke-miterlimit:2"
         id="path217291"
         d="m 697.43155,315.29001 q -5.1559,0 -9.7092,-1.9418 -4.5533,-2.0088 -7.9682,-5.4238 -3.348,-3.415 -5.3568,-7.9682 -1.9418,-4.5533 -1.9418,-9.7092 0,-5.1559 1.9418,-9.7092 1.9418,-4.6202 5.2898,-8.0352 3.415,-3.4819 7.9682,-5.4907 4.5533,-2.0088 9.7762,-2.0088 5.2229,0 9.7092,2.0088 4.5533,2.0088 7.9013,5.4907 3.348,3.415 5.2898,8.0352 1.9418,4.5533 1.9418,9.7092 0,5.1559 -1.9418,9.7092 -1.9418,4.5533 -5.3568,7.9682 -3.348,3.415 -7.9013,5.4238 -4.4863,1.9418 -9.6422,1.9418 z m 0,-47.475 q -4.5533,0 -8.6378,1.8079 -4.0176,1.741 -7.0308,4.8211 -3.0132,3.0132 -4.7542,7.0978 -1.741,4.0846 -1.741,8.6378 0,4.5533 1.741,8.6378 1.741,4.0176 4.7542,7.0978 3.0132,3.0132 7.0308,4.8211 4.0846,1.741 8.6378,1.741 4.5533,0 8.5709,-1.8079 4.0176,-1.8079 6.9638,-4.8211 3.0132,-3.0802 4.7542,-7.0978 1.741,-4.0846 1.741,-8.5709 0,-4.4863 -1.741,-8.5709 -1.741,-4.0846 -4.7542,-7.0978 -2.9462,-3.0802 -6.9638,-4.8881 -4.0176,-1.8079 -8.5709,-1.8079 z"
         stroke-miterlimit="2" />
      <path
         style="fill:#ccc09c;stroke:#ccc09c;stroke-width:3.81299996;stroke-miterlimit:2"
         id="path217293"
         d="m 733.63155,265.00001 h 26.985 q 3.6158,0.20088 6.4951,1.674 1.2053,0.60264 2.3436,1.607 1.2053,1.0044 2.0758,2.4775 0.93744,1.4062 1.4731,3.348 0.60264,1.9418 0.60264,4.4863 0,2.5445 -0.60264,4.4863 -0.60264,1.8749 -1.607,3.348 -1.0044,1.4062 -2.2766,2.4106 -1.2722,0.93744 -2.5445,1.5401 -3.0802,1.4731 -6.9638,1.674 l 12.187,23.235 h -3.0132 l -12.187,-23.235 h -20.155 v 23.235 h -2.8123 z m 2.8123,24.24 h 24.173 q 2.8793,-0.13392 5.089,-1.3392 0.93744,-0.46872 1.8749,-1.2053 0.93744,-0.80352 1.607,-1.9418 0.73656,-1.1383 1.1383,-2.6114 0.46872,-1.5401 0.46872,-3.5489 0,-2.0088 -0.46872,-3.5489 -0.40176,-1.5401 -1.1383,-2.6784 -0.6696,-1.1383 -1.607,-1.8749 -0.93744,-0.80352 -1.8749,-1.3392 -2.2097,-1.2053 -5.089,-1.3392 h -24.173 z"
         stroke-miterlimit="2" />
      <path
         style="fill:#ccc09c;stroke:#ccc09c;stroke-width:3.81299996;stroke-miterlimit:2"
         id="path217295"
         d="m 149.07155,320.32001 q 3.348,0.20088 6.0264,1.674 1.1383,0.60264 2.2097,1.607 1.1383,1.0044 1.9418,2.4775 0.87048,1.4062 1.4062,3.348 0.53568,1.9418 0.53568,4.4863 0,2.5445 -0.53568,4.4863 -0.53568,1.8749 -1.4062,3.348 -0.80352,1.4062 -1.9418,2.4106 -1.0714,0.93744 -2.2097,1.5401 -2.6784,1.4731 -6.0264,1.674 h -24.306 v 23.235 h -2.8123 v -26.047 h 26.181 q 2.8793,-0.13392 5.089,-1.3392 0.93744,-0.46872 1.8749,-1.2053 0.93744,-0.80352 1.674,-1.9418 0.73656,-1.13828 1.1383,-2.6114 0.46872,-1.5401 0.46872,-3.5489 0,-2.0088 -0.46872,-3.5489 -0.40176,-1.5401 -1.1383,-2.6784 -0.73656,-1.1383 -1.674,-1.8749 -0.93744,-0.80352 -1.8749,-1.3392 -2.2097,-1.2053 -5.089,-1.3392 h -26.18 v -2.81 z"
         stroke-miterlimit="2" />
      <path
         style="fill:#ccc09c;stroke:#ccc09c;stroke-width:3.81299996;stroke-miterlimit:2"
         id="path217297"
         d="m 158.53155,370.60001 24.51,-50.28 24.51,50.28 h -2.6784 l -6.5621,-13.191 h -30.534 l -6.5621,13.191 z m 10.379,-15.736 h 28.19 l -14.062,-28.86 z"
         stroke-miterlimit="2" />
      <path
         style="fill:#ccc09c;stroke:#ccc09c;stroke-width:3.81299996;stroke-miterlimit:2"
         id="path217299"
         d="m 233.53155,370.60001 q -5.1559,0 -9.7092,-2.0088 -4.5533,-2.0088 -7.9682,-5.4238 -3.415,-3.415 -5.4238,-7.9682 -2.0088,-4.5533 -2.0088,-9.7092 0,-5.1559 1.9418,-9.7092 2.0088,-4.6202 5.4238,-8.0352 3.415,-3.415 7.9682,-5.4238 4.6202,-2.0088 9.7762,-2.0088 9.0396,0 15.468,5.3568 l -1.741,1.8079 q -3.0132,-2.3436 -6.3612,-3.348 -3.348,-1.0044 -7.3656,-1.0044 -4.6872,0 -8.7718,1.741 -4.0176,1.741 -7.0308,4.7542 -3.0132,3.0132 -4.7542,7.0978 -1.741,4.0846 -1.741,8.8387 0,4.6872 1.741,8.7718 1.741,4.0176 4.7542,7.0308 3.0802,3.0132 7.0978,4.7542 4.0846,1.674 8.7048,1.674 3.7498,0 7.0308,-0.93744 3.281,-0.93744 6.2273,-3.0802 l 1.9418,1.741 q -6.4951,5.089 -15.2,5.089 z"
         stroke-miterlimit="2" />
      <path
         style="fill:#ccc09c;stroke:#ccc09c;stroke-width:3.81299996;stroke-miterlimit:2"
         id="path217301"
         d="m 294.82155,370.60001 -29.462,-25.579 29.596,-24.708 h 4.2185 l -29.529,24.976 29.529,25.311 h -4.2854 z m -32.275,0 v -50.28 h 2.8123 v 50.287 z"
         stroke-miterlimit="2" />
      <path
         style="fill:#ccc09c;stroke:#ccc09c;stroke-width:3.81299996;stroke-miterlimit:2"
         id="path217303"
         d="m 308.41155,370.60001 24.507,-50.287 24.507,50.287 h -2.6784 l -6.5621,-13.191 h -30.534 l -6.5621,13.191 z m 10.379,-15.736 h 28.19 l -14.062,-28.86 z"
         stroke-miterlimit="2" />
      <path
         style="fill:#ccc09c;stroke:#ccc09c;stroke-width:3.81299996;stroke-miterlimit:2"
         id="path217305"
         d="m 385.49155,370.60001 q -5.1559,0 -9.7762,-2.0088 -4.5533,-2.0088 -7.9682,-5.4238 -3.415,-3.415 -5.4238,-7.9682 -2.0088,-4.5533 -2.0088,-9.7092 0,-5.1559 2.0088,-9.7092 2.0088,-4.6202 5.4238,-8.0352 3.415,-3.415 7.9682,-5.4238 4.6202,-2.0088 9.7762,-2.0088 9.1735,0 16.07,5.7586 l -2.0088,1.674 q -3.0132,-2.4775 -6.5621,-3.5489 -3.4819,-1.0714 -7.4995,-1.0714 -4.6202,0 -8.7048,1.741 -4.0846,1.741 -7.1647,4.7542 -3.0132,3.0132 -4.7542,7.0978 -1.741,4.0846 -1.741,8.7718 0,4.6202 1.741,8.7048 1.741,4.0846 4.7542,7.0978 3.0132,3.0132 7.0978,4.7542 4.0846,1.741 8.7718,1.741 3.6828,0 7.1647,-1.0714 3.5489,-1.0714 7.3656,-4.0846 v -13.85 h -11.182 v -2.8123 h 13.995 v 17.811 q -0.93744,0.73656 -2.6114,1.9418 -1.674,1.1383 -3.9506,2.2766 -2.2766,1.0714 -5.022,1.8749 -2.6784,0.73656 -5.7586,0.73656 z"
         stroke-miterlimit="2" />
      <path
         style="fill:#ccc09c;stroke:#ccc09c;stroke-width:3.81299996;stroke-miterlimit:2"
         id="path217307"
         d="m 444.99155,320.32001 v 2.8123 h -27.93 v 21.36 h 24.173 v 2.9462 l -24.173,-0.067 v 20.423 h 27.922 v 2.8123 h -30.73 v -50.28 z"
         stroke-miterlimit="2" />
      <path
         style="fill:#ccc09c;stroke:#ccc09c;stroke-width:3.81299996;stroke-miterlimit:2"
         id="path217311"
         d="m 537.21155,320.32001 26.985,21.36 27.922,-21.36 v 50.287 h -2.8123 v -43.725 l -25.11,18.548 -24.173,-18.548 v 43.725 h -2.82 z"
         stroke-miterlimit="2" />
      <path
         style="fill:#ccc09c;stroke:#ccc09c;stroke-width:3.81299996;stroke-miterlimit:2"
         id="path217313"
         d="m 601.51155,370.60001 24.507,-50.287 24.507,50.287 h -2.6784 l -6.5621,-13.191 h -30.53 l -6.5621,13.191 z m 10.379,-15.736 h 28.19 l -14.062,-28.86 z"
         stroke-miterlimit="2" />
      <path
         style="fill:#ccc09c;stroke:#ccc09c;stroke-width:3.81299996;stroke-miterlimit:2"
         id="path217315"
         d="m 660.01155,370.60001 v -50.22 l 39.038,42.52 v -42.52 h 2.9462 v 50.22 l -39.172,-43.055 v 43.055 z"
         stroke-miterlimit="2" />
      <path
         style="fill:#ccc09c;stroke:#ccc09c;stroke-width:3.81299996;stroke-miterlimit:2"
         id="path217317"
         d="m 711.50155,370.60001 24.507,-50.287 24.507,50.287 h -2.6784 l -6.5621,-13.191 h -30.534 l -6.5621,13.191 z m 10.379,-15.736 h 28.19 l -14.062,-28.86 z"
         stroke-miterlimit="2" />
      <path
         style="fill:#ccc09c;stroke:#ccc09c;stroke-width:3.81299996;stroke-miterlimit:2"
         id="path217319"
         d="m 788.58155,370.60001 q -5.1559,0 -9.7762,-2.0088 -4.5533,-2.0088 -7.9682,-5.4238 -3.415,-3.415 -5.4238,-7.9682 -2.0088,-4.5533 -2.0088,-9.7092 0,-5.1559 2.0088,-9.7092 2.0088,-4.6202 5.4238,-8.0352 3.415,-3.415 7.9682,-5.4238 4.6202,-2.0088 9.7762,-2.0088 9.1735,0 16.07,5.7586 l -2.0088,1.674 q -3.0132,-2.4775 -6.5621,-3.5489 -3.4819,-1.0714 -7.4995,-1.0714 -4.6202,0 -8.7048,1.741 -4.0846,1.741 -7.1647,4.7542 -3.0132,3.0132 -4.7542,7.0978 -1.741,4.0846 -1.741,8.7718 0,4.6202 1.741,8.7048 1.741,4.0846 4.7542,7.0978 3.0132,3.0132 7.0978,4.7542 4.0846,1.741 8.7718,1.741 3.6828,0 7.1647,-1.0714 3.5489,-1.0714 7.3656,-4.0846 v -13.85 h -11.182 v -2.8123 h 13.995 v 17.811 q -0.93744,0.73656 -2.6114,1.9418 -1.674,1.1383 -3.9506,2.2766 -2.2766,1.0714 -5.022,1.8749 -2.6784,0.73656 -5.7586,0.73656 z"
         stroke-miterlimit="2" />
      <path
         style="fill:#ccc09c;stroke:#ccc09c;stroke-width:3.81299996;stroke-miterlimit:2"
         id="path217321"
         d="m 848.08155,320.32001 v 2.8123 h -27.922 v 21.36 h 24.173 v 2.9462 l -24.173,-0.067 v 20.423 h 27.922 v 2.8123 h -30.74 v -50.28 z"
         stroke-miterlimit="2" />
      <path
         style="fill:#ccc09c;stroke:#ccc09c;stroke-width:3.81299996;stroke-miterlimit:2"
         id="path217323"
         d="m 862.07155,320.32001 h 26.985 q 3.6158,0.20088 6.4951,1.674 1.2053,0.60264 2.3436,1.607 1.2053,1.0044 2.0758,2.4775 0.93744,1.4062 1.4731,3.348 0.60264,1.9418 0.60264,4.4863 0,2.5445 -0.60264,4.4863 -0.60264,1.8749 -1.607,3.348 -1.0044,1.4062 -2.2766,2.4106 -1.2722,0.93744 -2.5445,1.5401 -3.0802,1.4731 -6.9638,1.674 l 12.187,23.235 h -3.0132 l -12.187,-23.235 h -20.155 v 23.235 h -2.8123 z m 2.8123,24.24 h 24.173 q 2.8793,-0.13392 5.089,-1.3392 0.93744,-0.46872 1.8749,-1.2053 0.93744,-0.80352 1.607,-1.9418 0.73656,-1.1383 1.1383,-2.6114 0.46872,-1.5401 0.46872,-3.5489 0,-2.0088 -0.46872,-3.5489 -0.40176,-1.5401 -1.1383,-2.6784 -0.6696,-1.1383 -1.607,-1.8749 -0.93744,-0.80352 -1.8749,-1.3392 -2.2097,-1.2053 -5.089,-1.3392 h -24.173 z"
         stroke-miterlimit="2" />
      <path
         style="fill:#adaa5f;stroke-width:0.34145001"
         id="icon"
         d="m 490.97155,318.00001 c -0.0782,0.001 -0.1889,0.01 -0.24585,0.0194 -0.057,0.009 -0.17239,0.0408 -0.25649,0.0699 -0.116,0.0399 -2.6744,1.5021 -10.642,6.0816 -5.7692,3.3159 -10.609,6.0888 -10.755,6.1619 -0.14619,0.0731 -0.60315,0.28857 -1.0157,0.47878 -0.41234,0.19023 -1.0233,0.48033 -1.3574,0.64453 -0.33414,0.16422 -0.75274,0.3782 -0.93026,0.47558 -0.17751,0.0972 -0.40818,0.22801 -0.5126,0.29047 -0.10441,0.0625 -0.32217,0.20162 -0.48411,0.30907 -0.16175,0.10746 -0.39243,0.27377 -0.51259,0.36963 -0.11999,0.0957 -0.29806,0.25231 -0.39565,0.34797 -0.0974,0.0957 -0.23047,0.24225 -0.29559,0.32579 -0.0653,0.0835 -0.14998,0.20428 -0.18833,0.26825 -0.0383,0.064 -0.0917,0.17504 -0.11885,0.24681 -0.0269,0.0718 -0.0824,0.26768 -0.12302,0.43532 -0.0408,0.16782 -0.0997,0.45413 -0.13099,0.63599 -0.0313,0.18207 -0.0738,0.47633 -0.0944,0.65385 -0.0205,0.17751 -0.0463,0.43799 -0.0573,0.57904 -0.0112,0.14106 -0.0285,0.44843 -0.0387,0.68346 -0.0102,0.23484 -0.0184,0.6322 -0.0184,0.88279 0,0.2506 0.008,0.69903 0.0188,0.99671 0.0102,0.29768 0.0317,0.77592 0.0475,1.0632 0.016,0.28705 0.0628,1.0347 0.10404,1.6612 0.0412,0.6265 0.0902,1.3783 0.10878,1.6707 l 0.0336,0.53158 -0.007,6.2752 -0.007,6.2756 0.0325,0.13194 c 0.0177,0.0727 0.0691,0.21112 0.11429,0.30737 0.0452,0.0964 0.12758,0.24168 0.18321,0.32274 0.0556,0.0813 0.21642,0.2637 0.35729,0.40589 0.14106,0.142 0.33756,0.32236 0.43666,0.40076 0.0993,0.0784 0.28591,0.21624 0.41483,0.30642 0.1291,0.09 0.35218,0.23579 0.49589,0.32369 0.14391,0.0881 0.40135,0.23788 0.57238,0.33281 0.17106,0.0951 0.52038,0.27869 0.7761,0.4078 0.25591,0.12928 0.76414,0.37741 1.1296,0.55131 0.36546,0.17409 0.77554,0.3742 0.91127,0.44502 0.13574,0.0706 2.9379,1.6963 6.2271,3.6126 3.2891,1.9161 8.0863,4.71 10.66,6.2087 2.574,1.4987 4.7312,2.7509 4.7944,2.7826 0.063,0.0315 0.16991,0.0761 0.23731,0.0989 0.0814,0.0273 0.19023,0.0446 0.32217,0.0511 0.14125,0.007 0.23978,10e-4 0.33831,-0.0197 0.0763,-0.0163 0.20447,-0.0583 0.28477,-0.0932 0.0801,-0.0349 4.7807,-2.8872 10.445,-6.3384 5.6647,-3.4514 10.419,-6.3391 10.565,-6.4176 0.146,-0.0784 0.75694,-0.3869 1.3572,-0.68537 0.60048,-0.29844 1.2583,-0.63391 1.4618,-0.74553 0.20371,-0.11163 0.5198,-0.29275 0.70244,-0.40247 0.18283,-0.10992 0.45622,-0.28363 0.60752,-0.38598 0.1515,-0.10252 0.37724,-0.26579 0.50197,-0.363 0.12454,-0.097 0.3199,-0.26598 0.43399,-0.37533 0.1141,-0.10935 0.25725,-0.25952 0.31781,-0.33375 0.0607,-0.0742 0.15377,-0.20257 0.20693,-0.28535 0.0532,-0.0828 0.12151,-0.21491 0.15207,-0.29369 0.0304,-0.0788 0.0811,-0.24529 0.11258,-0.37021 0.0313,-0.12473 0.0786,-0.33793 0.10518,-0.47366 0.0266,-0.13575 0.0693,-0.3964 0.0949,-0.57904 0.0258,-0.18283 0.0602,-0.48183 0.0765,-0.66447 0.0165,-0.18283 0.0382,-0.52455 0.0484,-0.7594 0.0101,-0.23503 0.0184,-0.64511 0.0186,-0.91127 0,-0.26636 -0.009,-0.71914 -0.0188,-1.0062 -0.0104,-0.28724 -0.0319,-0.75274 -0.0476,-1.0347 -0.0158,-0.28192 -0.0541,-0.89287 -0.0851,-1.3574 -0.0308,-0.46475 -0.0689,-1.0542 -0.0845,-1.31 -0.0156,-0.25592 -0.0382,-0.67018 -0.0503,-0.92077 -0.0161,-0.33698 -0.0186,-1.9769 -0.009,-6.2934 l 0.0129,-5.8378 -0.0393,-0.15188 c -0.0214,-0.0835 -0.0773,-0.22877 -0.12397,-0.32274 -0.0467,-0.094 -0.14258,-0.24776 -0.2132,-0.34173 -0.0706,-0.094 -0.21814,-0.26085 -0.32787,-0.37096 -0.10954,-0.10992 -0.31135,-0.28933 -0.44823,-0.39868 -0.13688,-0.10916 -0.37608,-0.28515 -0.53158,-0.39069 -0.15548,-0.10575 -0.43207,-0.28174 -0.61492,-0.39111 -0.18264,-0.10935 -0.48603,-0.28306 -0.67396,-0.38577 -0.18795,-0.1029 -0.83288,-0.43211 -1.4334,-0.73167 -0.60031,-0.29958 -1.1727,-0.59137 -1.272,-0.64832 -0.0991,-0.0569 -0.62022,-0.36659 -1.1581,-0.6882 -0.53765,-0.3216 -1.6653,-0.99217 -2.506,-1.4905 -0.84046,-0.49815 -2.4937,-1.4764 -3.6737,-2.174 -1.1799,-0.69749 -2.6281,-1.5543 -3.2179,-1.9042 -0.58986,-0.34989 -1.6023,-0.95229 -2.2497,-1.3388 -0.6474,-0.38636 -1.6255,-0.97318 -2.1738,-1.3041 -0.5481,-0.3309 -1.317,-0.79641 -1.7086,-1.0345 -0.39147,-0.23807 -1.1176,-0.6827 -1.6137,-0.98779 -0.4959,-0.30509 -1.2819,-0.79166 -1.7466,-1.0814 -0.46455,-0.2899 -0.89171,-0.55056 -0.94924,-0.57962 -0.0573,-0.0292 -0.14448,-0.0662 -0.19346,-0.0826 -0.0492,-0.0163 -0.14315,-0.0385 -0.20883,-0.0492 -0.0659,-0.0106 -0.18378,-0.0186 -0.26218,-0.0175 z m -0.0173,4.0459 c 0.007,0.003 1.8336,1.0977 4.0592,2.4335 2.2256,1.3356 4.0401,2.4341 4.0319,2.4411 -0.008,0.007 -4.766,3.0213 -10.573,6.6983 l -10.559,6.6864 -2.7501,-1.6257 c -1.5125,-0.894 -2.985,-1.7641 -3.2722,-1.9338 -0.28705,-0.16953 -1.1201,-0.66122 -1.851,-1.0924 -0.73091,-0.43115 -1.3354,-0.78958 -1.3434,-0.79624 -0.008,-0.007 0.0691,-0.0602 0.17086,-0.11865 0.10195,-0.0585 0.37762,-0.21662 0.61247,-0.3516 0.23503,-0.13498 0.74761,-0.42945 1.1391,-0.6544 0.39165,-0.22497 2.9161,-1.6758 5.6101,-3.224 2.6939,-1.548 5.0648,-2.9108 5.2683,-3.0279 0.2037,-0.11713 2.4035,-1.3814 4.8886,-2.8092 2.4851,-1.4279 4.5267,-2.6038 4.5366,-2.6131 0.0101,-0.009 0.0239,-0.015 0.0309,-0.0121 z m 11.668,7.0012 c 0.004,0 2.3015,1.3764 5.1051,3.0586 2.8037,1.6822 5.0904,3.0651 5.0815,3.0731 -0.009,0.008 -3.7622,2.2 -8.3407,4.8708 -4.5789,2.671 -9.5003,5.5422 -10.937,6.3801 -1.4366,0.83817 -2.6209,1.5266 -2.6315,1.5296 -0.0108,0.003 -0.61226,-0.34419 -1.3369,-0.77193 -0.72446,-0.42774 -1.5436,-0.91128 -1.8205,-1.0746 -0.2766,-0.16346 -1.0926,-0.64528 -1.813,-1.0709 -0.72047,-0.42565 -1.485,-0.87767 -1.6992,-1.0047 -0.21396,-0.12682 -0.9166,-0.5422 -1.5611,-0.92285 -0.89058,-0.52608 -1.1662,-0.69732 -1.1486,-0.71344 0.0129,-0.0118 0.55739,-0.3588 1.2099,-0.77117 0.65269,-0.41234 1.994,-1.2606 2.9806,-1.885 0.98684,-0.62442 1.9991,-1.2652 2.2497,-1.4239 0.2506,-0.15872 1.3441,-0.85091 2.4301,-1.5382 1.0859,-0.68725 2.1838,-1.3817 2.4396,-1.5433 0.25592,-0.16157 0.636,-0.40231 0.84483,-0.53482 0.20883,-0.13252 0.54202,-0.34364 0.74041,-0.46913 0.19839,-0.12549 0.57013,-0.36051 0.82584,-0.52246 0.25592,-0.16194 1.14,-0.72142 1.9649,-1.2435 0.82488,-0.52208 2.2602,-1.4301 3.1895,-2.0181 0.9293,-0.58795 1.8087,-1.1446 1.9543,-1.2368 0.14543,-0.0923 0.26788,-0.16782 0.27206,-0.16782 z m -35.716,9.054 c 0.0325,0.0197 5.0228,2.9683 11.089,6.5522 6.0666,3.5839 11.032,6.518 11.035,6.5201 0.003,0.002 -0.004,3.7321 -0.0154,8.2892 -0.011,4.5567 -0.026,8.338 -0.0332,8.4028 l -0.0137,0.11951 -6.4931,-3.7833 c -3.5709,-2.08 -6.8475,-3.9878 -7.2808,-4.2402 -0.43324,-0.25231 -1.7616,-1.0258 -2.952,-1.7189 -1.1903,-0.69316 -2.9058,-1.6914 -3.8123,-2.2182 l -1.6481,-0.95799 0.0106,-1.3764 c 0.006,-0.75711 0.0148,-3.572 0.0201,-6.2554 0.005,-2.6835 0.015,-5.8894 0.0216,-7.1241 l 0.0122,-2.2448 z m 47.698,0.33433 c 0.004,0.004 -0.003,3.6362 -0.0159,8.0716 -0.0171,6.0263 -0.0285,8.0703 -0.0448,8.086 -0.012,0.0114 -3.0332,1.8541 -6.714,4.0944 -3.6805,2.2406 -8.593,5.2314 -10.916,6.6461 l -4.2241,2.5726 -0.005,-0.28819 c -0.002,-0.15852 0.006,-3.9168 0.0194,-8.3516 0.0209,-7.0797 0.0274,-8.0665 0.052,-8.0894 0.0154,-0.014 4.4488,-2.6046 9.8523,-5.7562 5.4032,-3.1517 10.311,-6.0144 10.907,-6.3613 0.59536,-0.34723 1.0856,-0.62801 1.0896,-0.62405 z" />
    </g>
  </g>
</svg>
