<?xml version="1.0" encoding="UTF-8" standalone="no"?>
<svg
   xmlns:dc="http://purl.org/dc/elements/1.1/"
   xmlns:cc="http://creativecommons.org/ns#"
   xmlns:rdf="http://www.w3.org/1999/02/22-rdf-syntax-ns#"
   xmlns:svg="http://www.w3.org/2000/svg"
   xmlns="http://www.w3.org/2000/svg"
   id="svg51"
   xml:space="preserve"
   viewBox="0 0 1024 768"
   y="0px"
   x="0px"
   version="1.1"><metadata
     id="metadata55"><rdf:RDF><cc:Work
         rdf:about=""><dc:format>image/svg+xml</dc:format><dc:type
           rdf:resource="http://purl.org/dc/dcmitype/StillImage" /></cc:Work></rdf:RDF></metadata><defs
     id="defs11"><filter
       height="200%"
       width="200%"
       y="-50%"
       x="-50%"
       id="noise"><feGaussianBlur
         id="feGaussianBlur2"
         stdDeviation="2"
         in="SourceGraphic" /><feTurbulence
         id="feTurbulence4"
         result="cloud"
         seed="1"
         numOctaves="2"
         type="fractalNoise"
         baseFrequency="0.6" /><feColorMatrix
         id="feColorMatrix6"
         result="cloud"
         type="luminanceToAlpha"
         in="cloud" /><feComposite
         id="feComposite8"
         result="output"
         operator="in"
         in2="cloud"
         in="SourceGraphic" /></filter></defs><linearGradient
     y2="565.2551"
     x2="714.6448"
     y1="196.7104"
     x1="346.1001"
     gradientUnits="userSpaceOnUse"
     id="gradient"><stop
       id="stop13"
       style="stop-color:#58584e; stop-opacity: 0"
       offset="0" /><stop
       id="stop15"
       style="stop-color:#58584e; stop-opacity: 1"
       offset="1" /></linearGradient><g
     transform="translate(5e-6,0.95326)"
     id="logo-group"><path
       stroke-miterlimit="2"
       d="m 468.22,443.5 9.672,7.656 10.008,-7.656 v 18.024 h -1.008 v -15.672 l -9,6.648 -8.664,-6.648 v 15.672 h -1.008 z"
       style="font-variant-ligatures:none;fill:#a6a5a2;stroke-width:0;stroke-miterlimit:2"
       id="path217264" /><path
       stroke-miterlimit="2"
       d="m 492.88,443.5 9.672,7.656 10.008,-7.656 v 18.024 h -1.008 v -15.672 l -9,6.648 -8.664,-6.648 v 15.672 h -1.008 z"
       style="font-variant-ligatures:none;fill:#a6a5a2;stroke-width:0;stroke-miterlimit:2"
       id="path217266" /><path
       stroke-miterlimit="2"
       d="m 527.26,443.5 q 1.2,0.072 2.16,0.6 0.408,0.216 0.792,0.576 0.408,0.36 0.696,0.888 0.31201,0.504 0.50401,1.2 0.192,0.696 0.192,1.608 0,0.912 -0.192,1.608 -0.192,0.672 -0.50401,1.2 -0.288,0.504 -0.696,0.864 -0.38399,0.336 -0.792,0.552 -0.95999,0.528 -2.16,0.6 h -8.712 v 8.328 h -1.008 v -9.336 h 9.384 q 1.032,-0.048 1.824,-0.48 0.336,-0.168 0.672,-0.432 0.336,-0.288 0.6,-0.696 0.264,-0.408 0.408,-0.936 0.168,-0.552 0.168,-1.272 0,-0.72 -0.168,-1.272 -0.144,-0.552 -0.408,-0.96 -0.264,-0.408 -0.6,-0.672 -0.336,-0.288 -0.672,-0.48 -0.792,-0.432 -1.824,-0.48 H 517.54 V 443.5 Z"
       style="font-variant-ligatures:none;fill:#a6a5a2;stroke-width:0;stroke-miterlimit:2"
       id="path217268" /><path
       stroke-miterlimit="2"
       d="m 536.1,443.5 9.672,7.656 10.008,-7.656 v 18.024 h -1.008 v -15.672 l -9,6.648 -8.664,-6.648 v 15.672 H 536.1 Z"
       style="font-variant-ligatures:none;fill:#a6a5a2;stroke-width:0;stroke-miterlimit:2"
       id="path217270" /><path
       stroke-miterlimit="2"
       d="m 250.39,306.47 26.985,21.36 27.922,-21.36 v 50.287 h -2.8123 v -43.725 l -25.11,18.548 -24.173,-18.548 v 43.725 h -2.8123 z"
       style="font-variant-ligatures:none;fill:#ccc09c;stroke:#ccc09c;stroke-width:3.81299996;stroke-miterlimit:2"
       id="path217273" /><path
       stroke-miterlimit="2"
       d="m 314.7,356.76 24.507,-50.287 24.507,50.287 h -2.6784 l -6.5621,-13.191 h -30.534 l -6.5621,13.191 z m 10.379,-15.736 h 28.19 l -14.062,-28.86 z"
       style="font-variant-ligatures:none;fill:#ccc09c;stroke:#ccc09c;stroke-width:3.81299996;stroke-miterlimit:2"
       id="path217275" /><path
       stroke-miterlimit="2"
       d="m 391.78,356.76 q -5.1559,0 -9.7762,-2.0088 -4.5533,-2.0088 -7.9682,-5.4238 -3.415,-3.415 -5.4238,-7.9682 -2.0088,-4.5533 -2.0088,-9.7092 0,-5.1559 2.0088,-9.7092 2.0088,-4.6202 5.4238,-8.0352 3.415,-3.415 7.9682,-5.4238 4.6202,-2.0088 9.7762,-2.0088 9.1735,0 16.07,5.7586 l -2.0088,1.674 q -3.0132,-2.4775 -6.5621,-3.5489 -3.4819,-1.0714 -7.4995,-1.0714 -4.6202,0 -8.7048,1.741 -4.0846,1.741 -7.1647,4.7542 -3.0132,3.0132 -4.7542,7.0978 -1.741,4.0846 -1.741,8.7718 0,4.6202 1.741,8.7048 1.741,4.0846 4.7542,7.0978 3.0132,3.0132 7.0978,4.7542 4.0846,1.741 8.7718,1.741 3.6828,0 7.1647,-1.0714 3.5489,-1.0714 7.3656,-4.0846 v -13.861 h -11.182 v -2.8123 h 13.995 v 17.811 q -0.93744,0.73656 -2.6114,1.9418 -1.674,1.1383 -3.9506,2.2766 -2.2766,1.0714 -5.022,1.8749 -2.6784,0.73656 -5.7586,0.73656 z"
       style="font-variant-ligatures:none;fill:#ccc09c;stroke:#ccc09c;stroke-width:3.81299996;stroke-miterlimit:2"
       id="path217277" /><path
       stroke-miterlimit="2"
       d="m 423.29,306.47 v 50.287 h -2.7454 V 306.47 Z"
       style="font-variant-ligatures:none;fill:#ccc09c;stroke:#ccc09c;stroke-width:3.81299996;stroke-miterlimit:2"
       id="path217279" /><path
       stroke-miterlimit="2"
       d="m 457.71,356.76 q -5.1559,0 -9.7092,-2.0088 -4.5533,-2.0088 -7.9682,-5.4238 -3.415,-3.415 -5.4238,-7.9682 -2.0088,-4.5533 -2.0088,-9.7092 0,-5.1559 1.9418,-9.7092 2.0088,-4.6202 5.4238,-8.0352 3.415,-3.415 7.9682,-5.4238 4.6202,-2.0088 9.7762,-2.0088 9.0396,0 15.468,5.3568 l -1.741,1.8079 q -3.0132,-2.3436 -6.3612,-3.348 -3.348,-1.0044 -7.3656,-1.0044 -4.6872,0 -8.7718,1.741 -4.0176,1.741 -7.0308,4.7542 -3.0132,3.0132 -4.7542,7.0978 -1.741,4.0846 -1.741,8.8387 0,4.6872 1.741,8.7718 1.741,4.0176 4.7542,7.0308 3.0802,3.0132 7.0978,4.7542 4.0846,1.674 8.7048,1.674 3.7498,0 7.0308,-0.93744 3.281,-0.93744 6.2273,-3.0802 l 1.9418,1.741 q -6.4951,5.089 -15.2,5.089 z"
       style="font-variant-ligatures:none;fill:#ccc09c;stroke:#ccc09c;stroke-width:3.81299996;stroke-miterlimit:2"
       id="path217281" /><path
       stroke-miterlimit="2"
       d="m 486.72,306.47 26.985,21.36 27.922,-21.36 v 50.287 h -2.8123 v -43.725 l -25.11,18.548 -24.173,-18.548 v 43.725 h -2.8123 z"
       style="font-variant-ligatures:none;fill:#ccc09c;stroke:#ccc09c;stroke-width:3.81299996;stroke-miterlimit:2"
       id="path217283" /><path
       stroke-miterlimit="2"
       d="m 558.25,306.47 v 50.287 h -2.7454 V 306.47 Z"
       style="font-variant-ligatures:none;fill:#ccc09c;stroke:#ccc09c;stroke-width:3.81299996;stroke-miterlimit:2"
       id="path217285" /><path
       stroke-miterlimit="2"
       d="m 572.12,306.47 h 26.985 q 3.6158,0.20088 6.4951,1.674 1.2053,0.60264 2.3436,1.607 1.2053,1.0044 2.0758,2.4775 0.93744,1.4062 1.4731,3.348 0.60264,1.9418 0.60264,4.4863 0,2.5445 -0.60264,4.4863 -0.60264,1.8749 -1.607,3.348 -1.0044,1.4062 -2.2766,2.4106 -1.2722,0.93744 -2.5445,1.5401 -3.0802,1.4731 -6.9638,1.674 l 12.187,23.235 h -3.0132 l -12.187,-23.235 h -20.155 v 23.235 h -2.8123 z m 2.8123,24.24 h 24.173 q 2.8793,-0.13392 5.089,-1.3392 0.93744,-0.46872 1.8749,-1.2053 0.93744,-0.80352 1.607,-1.9418 0.73656,-1.1383 1.1383,-2.6114 0.46872,-1.5401 0.46872,-3.5489 0,-2.0088 -0.46872,-3.5489 -0.40176,-1.5401 -1.1383,-2.6784 -0.6696,-1.1383 -1.607,-1.8749 -0.93744,-0.80352 -1.8749,-1.3392 -2.2097,-1.2053 -5.089,-1.3392 h -24.173 z"
       style="font-variant-ligatures:none;fill:#ccc09c;stroke:#ccc09c;stroke-width:3.81299996;stroke-miterlimit:2"
       id="path217287" /><path
       stroke-miterlimit="2"
       d="m 624.56,306.47 h 26.985 q 3.6158,0.20088 6.4951,1.674 1.2053,0.60264 2.3436,1.607 1.2053,1.0044 2.0758,2.4775 0.93744,1.4062 1.4731,3.348 0.60264,1.9418 0.60264,4.4863 0,2.5445 -0.60264,4.4863 -0.60264,1.8749 -1.607,3.348 -1.0044,1.4062 -2.2766,2.4106 -1.2722,0.93744 -2.5445,1.5401 -3.0802,1.4731 -6.9638,1.674 l 12.187,23.235 h -3.0132 l -12.187,-23.235 h -20.155 v 23.235 h -2.8123 z m 2.8123,24.24 h 24.173 q 2.8793,-0.13392 5.089,-1.3392 0.93744,-0.46872 1.8749,-1.2053 0.93744,-0.80352 1.607,-1.9418 0.73656,-1.1383 1.1383,-2.6114 0.46872,-1.5401 0.46872,-3.5489 0,-2.0088 -0.46872,-3.5489 -0.40176,-1.5401 -1.1383,-2.6784 -0.6696,-1.1383 -1.607,-1.8749 -0.93744,-0.80352 -1.8749,-1.3392 -2.2097,-1.2053 -5.089,-1.3392 h -24.173 z"
       style="font-variant-ligatures:none;fill:#ccc09c;stroke:#ccc09c;stroke-width:3.81299996;stroke-miterlimit:2"
       id="path217289" /><path
       stroke-miterlimit="2"
       d="m 697.43,356.76 q -5.1559,0 -9.7092,-1.9418 -4.5533,-2.0088 -7.9682,-5.4238 -3.348,-3.415 -5.3568,-7.9682 -1.9418,-4.5533 -1.9418,-9.7092 0,-5.1559 1.9418,-9.7092 1.9418,-4.6202 5.2898,-8.0352 3.415,-3.4819 7.9682,-5.4907 4.5533,-2.0088 9.7762,-2.0088 5.2229,0 9.7092,2.0088 4.5533,2.0088 7.9013,5.4907 3.348,3.415 5.2898,8.0352 1.9418,4.5533 1.9418,9.7092 0,5.1559 -1.9418,9.7092 -1.9418,4.5533 -5.3568,7.9682 -3.348,3.415 -7.9013,5.4238 -4.4863,1.9418 -9.6422,1.9418 z m 0,-47.475 q -4.5533,0 -8.6378,1.8079 -4.0176,1.741 -7.0308,4.8211 -3.0132,3.0132 -4.7542,7.0978 -1.741,4.0846 -1.741,8.6378 0,4.5533 1.741,8.6378 1.741,4.0176 4.7542,7.0978 3.0132,3.0132 7.0308,4.8211 4.0846,1.741 8.6378,1.741 4.5533,0 8.5709,-1.8079 4.0176,-1.8079 6.9638,-4.8211 3.0132,-3.0802 4.7542,-7.0978 1.741,-4.0846 1.741,-8.5709 0,-4.4863 -1.741,-8.5709 -1.741,-4.0846 -4.7542,-7.0978 -2.9462,-3.0802 -6.9638,-4.8881 -4.0176,-1.8079 -8.5709,-1.8079 z"
       style="font-variant-ligatures:none;fill:#ccc09c;stroke:#ccc09c;stroke-width:3.81299996;stroke-miterlimit:2"
       id="path217291" /><path
       stroke-miterlimit="2"
       d="m 733.63,306.47 h 26.985 q 3.6158,0.20088 6.4951,1.674 1.2053,0.60264 2.3436,1.607 1.2053,1.0044 2.0758,2.4775 0.93744,1.4062 1.4731,3.348 0.60264,1.9418 0.60264,4.4863 0,2.5445 -0.60264,4.4863 -0.60264,1.8749 -1.607,3.348 -1.0044,1.4062 -2.2766,2.4106 -1.2722,0.93744 -2.5445,1.5401 -3.0802,1.4731 -6.9638,1.674 l 12.187,23.235 h -3.0132 l -12.187,-23.235 h -20.155 v 23.235 h -2.8123 z m 2.8123,24.24 h 24.173 q 2.8793,-0.13392 5.089,-1.3392 0.93744,-0.46872 1.8749,-1.2053 0.93744,-0.80352 1.607,-1.9418 0.73656,-1.1383 1.1383,-2.6114 0.46872,-1.5401 0.46872,-3.5489 0,-2.0088 -0.46872,-3.5489 -0.40176,-1.5401 -1.1383,-2.6784 -0.6696,-1.1383 -1.607,-1.8749 -0.93744,-0.80352 -1.8749,-1.3392 -2.2097,-1.2053 -5.089,-1.3392 h -24.173 z"
       style="font-variant-ligatures:none;fill:#ccc09c;stroke:#ccc09c;stroke-width:3.81299996;stroke-miterlimit:2"
       id="path217293" /><path
       stroke-miterlimit="2"
       d="m 149.07,361.79 q 3.348,0.20088 6.0264,1.674 1.1383,0.60264 2.2097,1.607 1.1383,1.0044 1.9418,2.4775 0.87048,1.4062 1.4062,3.348 0.53568,1.9418 0.53568,4.4863 0,2.5445 -0.53568,4.4863 -0.53568,1.8749 -1.4062,3.348 -0.80352,1.4062 -1.9418,2.4106 -1.0714,0.93744 -2.2097,1.5401 -2.6784,1.4731 -6.0264,1.674 h -24.306 v 23.235 h -2.8123 v -26.047 h 26.181 q 2.8793,-0.13392 5.089,-1.3392 0.93744,-0.46872 1.8749,-1.2053 0.93744,-0.80352 1.674,-1.9418 0.73656,-1.13828 1.1383,-2.6114 0.46872,-1.5401 0.46872,-3.5489 0,-2.0088 -0.46872,-3.5489 -0.40176,-1.5401 -1.1383,-2.6784 -0.73656,-1.1383 -1.674,-1.8749 -0.93744,-0.80352 -1.8749,-1.3392 -2.2097,-1.2053 -5.089,-1.3392 h -26.18 v -2.81 z"
       style="font-variant-ligatures:none;fill:#ccc09c;stroke:#ccc09c;stroke-width:3.81299996;stroke-miterlimit:2"
       id="path217295" /><path
       stroke-miterlimit="2"
       d="m 158.53,412.07 24.51,-50.28 24.51,50.28 h -2.6784 l -6.5621,-13.191 h -30.534 l -6.5621,13.191 z m 10.379,-15.736 h 28.19 l -14.062,-28.86 z"
       style="font-variant-ligatures:none;fill:#ccc09c;stroke:#ccc09c;stroke-width:3.81299996;stroke-miterlimit:2"
       id="path217297" /><path
       stroke-miterlimit="2"
       d="m 233.53,412.07 q -5.1559,0 -9.7092,-2.0088 -4.5533,-2.0088 -7.9682,-5.4238 -3.415,-3.415 -5.4238,-7.9682 -2.0088,-4.5533 -2.0088,-9.7092 0,-5.1559 1.9418,-9.7092 2.0088,-4.6202 5.4238,-8.0352 3.415,-3.415 7.9682,-5.4238 4.6202,-2.0088 9.7762,-2.0088 9.0396,0 15.468,5.3568 l -1.741,1.8079 q -3.0132,-2.3436 -6.3612,-3.348 -3.348,-1.0044 -7.3656,-1.0044 -4.6872,0 -8.7718,1.741 -4.0176,1.741 -7.0308,4.7542 -3.0132,3.0132 -4.7542,7.0978 -1.741,4.0846 -1.741,8.8387 0,4.6872 1.741,8.7718 1.741,4.0176 4.7542,7.0308 3.0802,3.0132 7.0978,4.7542 4.0846,1.674 8.7048,1.674 3.7498,0 7.0308,-0.93744 3.281,-0.93744 6.2273,-3.0802 l 1.9418,1.741 q -6.4951,5.089 -15.2,5.089 z"
       style="font-variant-ligatures:none;fill:#ccc09c;stroke:#ccc09c;stroke-width:3.81299996;stroke-miterlimit:2"
       id="path217299" /><path
       stroke-miterlimit="2"
       d="m 294.82,412.07 -29.462,-25.579 29.596,-24.708 h 4.2185 l -29.529,24.976 29.529,25.311 h -4.2854 z m -32.275,0 v -50.28 h 2.8123 v 50.287 z"
       style="font-variant-ligatures:none;fill:#ccc09c;stroke:#ccc09c;stroke-width:3.81299996;stroke-miterlimit:2"
       id="path217301" /><path
       stroke-miterlimit="2"
       d="m 308.41,412.07 24.507,-50.287 24.507,50.287 h -2.6784 l -6.5621,-13.191 h -30.534 l -6.5621,13.191 z m 10.379,-15.736 h 28.19 l -14.062,-28.86 z"
       style="font-variant-ligatures:none;fill:#ccc09c;stroke:#ccc09c;stroke-width:3.81299996;stroke-miterlimit:2"
       id="path217303" /><path
       stroke-miterlimit="2"
       d="m 385.49,412.07 q -5.1559,0 -9.7762,-2.0088 -4.5533,-2.0088 -7.9682,-5.4238 -3.415,-3.415 -5.4238,-7.9682 -2.0088,-4.5533 -2.0088,-9.7092 0,-5.1559 2.0088,-9.7092 2.0088,-4.6202 5.4238,-8.0352 3.415,-3.415 7.9682,-5.4238 4.6202,-2.0088 9.7762,-2.0088 9.1735,0 16.07,5.7586 l -2.0088,1.674 q -3.0132,-2.4775 -6.5621,-3.5489 -3.4819,-1.0714 -7.4995,-1.0714 -4.6202,0 -8.7048,1.741 -4.0846,1.741 -7.1647,4.7542 -3.0132,3.0132 -4.7542,7.0978 -1.741,4.0846 -1.741,8.7718 0,4.6202 1.741,8.7048 1.741,4.0846 4.7542,7.0978 3.0132,3.0132 7.0978,4.7542 4.0846,1.741 8.7718,1.741 3.6828,0 7.1647,-1.0714 3.5489,-1.0714 7.3656,-4.0846 v -13.85 h -11.182 v -2.8123 h 13.995 v 17.811 q -0.93744,0.73656 -2.6114,1.9418 -1.674,1.1383 -3.9506,2.2766 -2.2766,1.0714 -5.022,1.8749 -2.6784,0.73656 -5.7586,0.73656 z"
       style="font-variant-ligatures:none;fill:#ccc09c;stroke:#ccc09c;stroke-width:3.81299996;stroke-miterlimit:2"
       id="path217305" /><path
       stroke-miterlimit="2"
       d="m 444.99,361.79 v 2.8123 h -27.93 v 21.36 h 24.173 v 2.9462 l -24.173,-0.067 v 20.423 h 27.922 v 2.8123 h -30.73 v -50.28 z"
       style="font-variant-ligatures:none;fill:#ccc09c;stroke:#ccc09c;stroke-width:3.81299996;stroke-miterlimit:2"
       id="path217307" /><path
       stroke-miterlimit="2"
       d="m 537.21,361.79 26.985,21.36 27.922,-21.36 v 50.287 h -2.8123 v -43.725 l -25.11,18.548 -24.173,-18.548 v 43.725 h -2.82 z"
       style="font-variant-ligatures:none;fill:#ccc09c;stroke:#ccc09c;stroke-width:3.81299996;stroke-miterlimit:2"
       id="path217311" /><path
       stroke-miterlimit="2"
       d="m 601.51,412.07 24.507,-50.287 24.507,50.287 h -2.6784 l -6.5621,-13.191 h -30.53 l -6.5621,13.191 z m 10.379,-15.736 h 28.19 l -14.062,-28.86 z"
       style="font-variant-ligatures:none;fill:#ccc09c;stroke:#ccc09c;stroke-width:3.81299996;stroke-miterlimit:2"
       id="path217313" /><path
       stroke-miterlimit="2"
       d="m 660.01,412.07 v -50.22 l 39.038,42.52 v -42.52 h 2.9462 v 50.22 l -39.172,-43.055 v 43.055 z"
       style="font-variant-ligatures:none;fill:#ccc09c;stroke:#ccc09c;stroke-width:3.81299996;stroke-miterlimit:2"
       id="path217315" /><path
       stroke-miterlimit="2"
       d="m 711.5,412.07 24.507,-50.287 24.507,50.287 h -2.6784 l -6.5621,-13.191 h -30.534 l -6.5621,13.191 z m 10.379,-15.736 h 28.19 l -14.062,-28.86 z"
       style="font-variant-ligatures:none;fill:#ccc09c;stroke:#ccc09c;stroke-width:3.81299996;stroke-miterlimit:2"
       id="path217317" /><path
       stroke-miterlimit="2"
       d="m 788.58,412.07 q -5.1559,0 -9.7762,-2.0088 -4.5533,-2.0088 -7.9682,-5.4238 -3.415,-3.415 -5.4238,-7.9682 -2.0088,-4.5533 -2.0088,-9.7092 0,-5.1559 2.0088,-9.7092 2.0088,-4.6202 5.4238,-8.0352 3.415,-3.415 7.9682,-5.4238 4.6202,-2.0088 9.7762,-2.0088 9.1735,0 16.07,5.7586 l -2.0088,1.674 q -3.0132,-2.4775 -6.5621,-3.5489 -3.4819,-1.0714 -7.4995,-1.0714 -4.6202,0 -8.7048,1.741 -4.0846,1.741 -7.1647,4.7542 -3.0132,3.0132 -4.7542,7.0978 -1.741,4.0846 -1.741,8.7718 0,4.6202 1.741,8.7048 1.741,4.0846 4.7542,7.0978 3.0132,3.0132 7.0978,4.7542 4.0846,1.741 8.7718,1.741 3.6828,0 7.1647,-1.0714 3.5489,-1.0714 7.3656,-4.0846 v -13.85 h -11.182 v -2.8123 h 13.995 v 17.811 q -0.93744,0.73656 -2.6114,1.9418 -1.674,1.1383 -3.9506,2.2766 -2.2766,1.0714 -5.022,1.8749 -2.6784,0.73656 -5.7586,0.73656 z"
       style="font-variant-ligatures:none;fill:#ccc09c;stroke:#ccc09c;stroke-width:3.81299996;stroke-miterlimit:2"
       id="path217319" /><path
       stroke-miterlimit="2"
       d="m 848.08,361.79 v 2.8123 h -27.922 v 21.36 h 24.173 v 2.9462 l -24.173,-0.067 v 20.423 h 27.922 v 2.8123 h -30.74 v -50.28 z"
       style="font-variant-ligatures:none;fill:#ccc09c;stroke:#ccc09c;stroke-width:3.81299996;stroke-miterlimit:2"
       id="path217321" /><path
       stroke-miterlimit="2"
       d="m 862.07,361.79 h 26.985 q 3.6158,0.20088 6.4951,1.674 1.2053,0.60264 2.3436,1.607 1.2053,1.0044 2.0758,2.4775 0.93744,1.4062 1.4731,3.348 0.60264,1.9418 0.60264,4.4863 0,2.5445 -0.60264,4.4863 -0.60264,1.8749 -1.607,3.348 -1.0044,1.4062 -2.2766,2.4106 -1.2722,0.93744 -2.5445,1.5401 -3.0802,1.4731 -6.9638,1.674 l 12.187,23.235 h -3.0132 l -12.187,-23.235 h -20.155 v 23.235 h -2.8123 z m 2.8123,24.24 h 24.173 q 2.8793,-0.13392 5.089,-1.3392 0.93744,-0.46872 1.8749,-1.2053 0.93744,-0.80352 1.607,-1.9418 0.73656,-1.1383 1.1383,-2.6114 0.46872,-1.5401 0.46872,-3.5489 0,-2.0088 -0.46872,-3.5489 -0.40176,-1.5401 -1.1383,-2.6784 -0.6696,-1.1383 -1.607,-1.8749 -0.93744,-0.80352 -1.8749,-1.3392 -2.2097,-1.2053 -5.089,-1.3392 h -24.173 z"
       style="font-variant-ligatures:none;fill:#ccc09c;stroke:#ccc09c;stroke-width:3.81299996;stroke-miterlimit:2"
       id="path217323" /><path
       style="fill:#adaa5f;stroke-width:0.34145001"
       d="m 490.97,359.47 c -0.0782,10e-4 -0.1889,0.01 -0.24585,0.0194 -0.057,0.009 -0.17239,0.0408 -0.25649,0.0699 -0.116,0.0399 -2.6744,1.5021 -10.642,6.0816 -5.7692,3.3159 -10.609,6.0888 -10.755,6.1619 -0.14619,0.0731 -0.60315,0.28857 -1.0157,0.47878 -0.41234,0.19023 -1.0233,0.48033 -1.3574,0.64453 -0.33414,0.16422 -0.75274,0.3782 -0.93026,0.47558 -0.17751,0.0972 -0.40818,0.22801 -0.5126,0.29047 -0.10441,0.0625 -0.32217,0.20162 -0.48411,0.30907 -0.16175,0.10746 -0.39243,0.27377 -0.51259,0.36963 -0.11999,0.0957 -0.29806,0.25231 -0.39565,0.34797 -0.0974,0.0957 -0.23047,0.24225 -0.29559,0.32579 -0.0653,0.0835 -0.14998,0.20428 -0.18833,0.26825 -0.0383,0.064 -0.0917,0.17504 -0.11885,0.24681 -0.0269,0.0718 -0.0824,0.26768 -0.12302,0.43532 -0.0408,0.16782 -0.0997,0.45413 -0.13099,0.63599 -0.0313,0.18207 -0.0738,0.47633 -0.0944,0.65385 -0.0205,0.17751 -0.0463,0.43799 -0.0573,0.57904 -0.0112,0.14106 -0.0285,0.44843 -0.0387,0.68346 -0.0102,0.23484 -0.0184,0.6322 -0.0184,0.88279 0,0.2506 0.008,0.69903 0.0188,0.99671 0.0102,0.29768 0.0317,0.77592 0.0475,1.0632 0.016,0.28705 0.0628,1.0347 0.10404,1.6612 0.0412,0.6265 0.0902,1.3783 0.10878,1.6707 l 0.0336,0.53158 -0.007,6.2752 -0.007,6.2756 0.0325,0.13194 c 0.0177,0.0727 0.0691,0.21112 0.11429,0.30737 0.0452,0.0964 0.12758,0.24168 0.18321,0.32274 0.0556,0.0813 0.21642,0.2637 0.35729,0.40589 0.14106,0.142 0.33756,0.32236 0.43666,0.40076 0.0993,0.0784 0.28591,0.21624 0.41483,0.30642 0.1291,0.09 0.35218,0.23579 0.49589,0.32369 0.14391,0.0881 0.40135,0.23788 0.57238,0.33281 0.17106,0.0951 0.52038,0.27869 0.7761,0.4078 0.25591,0.12928 0.76414,0.37741 1.1296,0.55131 0.36546,0.17409 0.77554,0.3742 0.91127,0.44502 0.13574,0.0706 2.9379,1.6963 6.2271,3.6126 3.2891,1.9161 8.0863,4.71 10.66,6.2087 2.574,1.4987 4.7312,2.7509 4.7944,2.7826 0.063,0.0315 0.16991,0.0761 0.23731,0.0989 0.0814,0.0273 0.19023,0.0446 0.32217,0.0511 0.14125,0.007 0.23978,10e-4 0.33831,-0.0197 0.0763,-0.0163 0.20447,-0.0583 0.28477,-0.0932 0.0801,-0.0349 4.7807,-2.8872 10.445,-6.3384 5.6647,-3.4514 10.419,-6.3391 10.565,-6.4176 0.146,-0.0784 0.75694,-0.3869 1.3572,-0.68537 0.60048,-0.29844 1.2583,-0.63391 1.4618,-0.74553 0.20371,-0.11163 0.5198,-0.29275 0.70244,-0.40247 0.18283,-0.10992 0.45622,-0.28363 0.60752,-0.38598 0.1515,-0.10252 0.37724,-0.26579 0.50197,-0.363 0.12454,-0.097 0.3199,-0.26598 0.43399,-0.37533 0.1141,-0.10935 0.25725,-0.25952 0.31781,-0.33375 0.0607,-0.0742 0.15377,-0.20257 0.20693,-0.28535 0.0532,-0.0828 0.12151,-0.21491 0.15207,-0.29369 0.0304,-0.0788 0.0811,-0.24529 0.11258,-0.37021 0.0313,-0.12473 0.0786,-0.33793 0.10518,-0.47366 0.0266,-0.13575 0.0693,-0.3964 0.0949,-0.57904 0.0258,-0.18283 0.0602,-0.48183 0.0765,-0.66447 0.0165,-0.18283 0.0382,-0.52455 0.0484,-0.7594 0.0101,-0.23503 0.0184,-0.64511 0.0186,-0.91127 0,-0.26636 -0.009,-0.71914 -0.0188,-1.0062 -0.0104,-0.28724 -0.0319,-0.75274 -0.0476,-1.0347 -0.0158,-0.28192 -0.0541,-0.89287 -0.0851,-1.3574 -0.0308,-0.46475 -0.0689,-1.0542 -0.0845,-1.31 -0.0156,-0.25592 -0.0382,-0.67018 -0.0503,-0.92077 -0.0161,-0.33698 -0.0186,-1.9769 -0.009,-6.2934 l 0.0129,-5.8378 -0.0393,-0.15188 c -0.0214,-0.0835 -0.0773,-0.22877 -0.12397,-0.32274 -0.0467,-0.094 -0.14258,-0.24776 -0.2132,-0.34173 -0.0706,-0.094 -0.21814,-0.26085 -0.32787,-0.37096 -0.10954,-0.10992 -0.31135,-0.28933 -0.44823,-0.39868 -0.13688,-0.10916 -0.37608,-0.28515 -0.53158,-0.39069 -0.15548,-0.10575 -0.43207,-0.28174 -0.61492,-0.39111 -0.18264,-0.10935 -0.48603,-0.28306 -0.67396,-0.38577 -0.18795,-0.1029 -0.83288,-0.43211 -1.4334,-0.73167 -0.60031,-0.29958 -1.1727,-0.59137 -1.272,-0.64832 -0.0991,-0.0569 -0.62022,-0.36659 -1.1581,-0.6882 -0.53765,-0.3216 -1.6653,-0.99217 -2.506,-1.4905 -0.84046,-0.49815 -2.4937,-1.4764 -3.6737,-2.174 -1.1799,-0.69749 -2.6281,-1.5543 -3.2179,-1.9042 -0.58986,-0.34989 -1.6023,-0.95229 -2.2497,-1.3388 -0.6474,-0.38636 -1.6255,-0.97318 -2.1738,-1.3041 -0.5481,-0.3309 -1.317,-0.79641 -1.7086,-1.0345 -0.39147,-0.23807 -1.1176,-0.6827 -1.6137,-0.98779 -0.4959,-0.30509 -1.2819,-0.79166 -1.7466,-1.0814 -0.46455,-0.2899 -0.89171,-0.55056 -0.94924,-0.57962 -0.0573,-0.0292 -0.14448,-0.0662 -0.19346,-0.0826 -0.0492,-0.0163 -0.14315,-0.0385 -0.20883,-0.0492 -0.0659,-0.0106 -0.18378,-0.0186 -0.26218,-0.0175 z m -0.0173,4.0459 c 0.007,0.003 1.8336,1.0977 4.0592,2.4335 2.2256,1.3356 4.0401,2.4341 4.0319,2.4411 -0.008,0.007 -4.766,3.0213 -10.573,6.6983 l -10.559,6.6864 -2.7501,-1.6257 c -1.5125,-0.894 -2.985,-1.7641 -3.2722,-1.9338 -0.28705,-0.16953 -1.1201,-0.66122 -1.851,-1.0924 -0.73091,-0.43115 -1.3354,-0.78958 -1.3434,-0.79624 -0.008,-0.007 0.0691,-0.0602 0.17086,-0.11865 0.10195,-0.0585 0.37762,-0.21662 0.61247,-0.3516 0.23503,-0.13498 0.74761,-0.42945 1.1391,-0.6544 0.39165,-0.22497 2.9161,-1.6758 5.6101,-3.224 2.6939,-1.548 5.0648,-2.9108 5.2683,-3.0279 0.2037,-0.11713 2.4035,-1.3814 4.8886,-2.8092 2.4851,-1.4279 4.5267,-2.6038 4.5366,-2.6131 0.0101,-0.009 0.0239,-0.015 0.0309,-0.0121 z m 11.668,7.0012 c 0.004,0 2.3015,1.3764 5.1051,3.0586 2.8037,1.6822 5.0904,3.0651 5.0815,3.0731 -0.009,0.008 -3.7622,2.2 -8.3407,4.8708 -4.5789,2.671 -9.5003,5.5422 -10.937,6.3801 -1.4366,0.83817 -2.6209,1.5266 -2.6315,1.5296 -0.0108,0.003 -0.61226,-0.34419 -1.3369,-0.77193 -0.72446,-0.42774 -1.5436,-0.91128 -1.8205,-1.0746 -0.2766,-0.16346 -1.0926,-0.64528 -1.813,-1.0709 -0.72047,-0.42565 -1.485,-0.87767 -1.6992,-1.0047 -0.21396,-0.12682 -0.9166,-0.5422 -1.5611,-0.92285 -0.89058,-0.52608 -1.1662,-0.69732 -1.1486,-0.71344 0.0129,-0.0118 0.55739,-0.3588 1.2099,-0.77117 0.65269,-0.41234 1.994,-1.2606 2.9806,-1.885 0.98684,-0.62442 1.9991,-1.2652 2.2497,-1.4239 0.2506,-0.15872 1.3441,-0.85091 2.4301,-1.5382 1.0859,-0.68725 2.1838,-1.3817 2.4396,-1.5433 0.25592,-0.16157 0.636,-0.40231 0.84483,-0.53482 0.20883,-0.13252 0.54202,-0.34364 0.74041,-0.46913 0.19839,-0.12549 0.57013,-0.36051 0.82584,-0.52246 0.25592,-0.16194 1.14,-0.72142 1.9649,-1.2435 0.82488,-0.52208 2.2602,-1.4301 3.1895,-2.0181 0.9293,-0.58795 1.8087,-1.1446 1.9543,-1.2368 0.14543,-0.0923 0.26788,-0.16782 0.27206,-0.16782 z m -35.716,9.054 c 0.0325,0.0197 5.0228,2.9683 11.089,6.5522 6.0666,3.5839 11.032,6.518 11.035,6.5201 0.003,0.002 -0.004,3.7321 -0.0154,8.2892 -0.011,4.5567 -0.026,8.338 -0.0332,8.4028 l -0.0137,0.11951 -6.4931,-3.7833 c -3.5709,-2.08 -6.8475,-3.9878 -7.2808,-4.2402 -0.43324,-0.25231 -1.7616,-1.0258 -2.952,-1.7189 -1.1903,-0.69316 -2.9058,-1.6914 -3.8123,-2.2182 l -1.6481,-0.95799 0.0106,-1.3764 c 0.006,-0.75711 0.0148,-3.572 0.0201,-6.2554 0.005,-2.6835 0.015,-5.8894 0.0216,-7.1241 l 0.0122,-2.2448 z m 47.698,0.33433 c 0.004,0.004 -0.003,3.6362 -0.0159,8.0716 -0.0171,6.0263 -0.0285,8.0703 -0.0448,8.086 -0.012,0.0114 -3.0332,1.8541 -6.714,4.0944 -3.6805,2.2406 -8.593,5.2314 -10.916,6.6461 l -4.2241,2.5726 -0.005,-0.28819 c -0.002,-0.15852 0.006,-3.9168 0.0194,-8.3516 0.0209,-7.0797 0.0274,-8.0665 0.052,-8.0894 0.0154,-0.014 4.4488,-2.6046 9.8523,-5.7562 5.4032,-3.1517 10.311,-6.0144 10.907,-6.3613 0.59536,-0.34723 1.0856,-0.62801 1.0896,-0.62405 z"
       id="icon" /></g><path
     id="path49"
     filter="url(#noise)"
     d="m391.78 305.52c-3.69 0-7.22 0.72-10.54 2.17h-0.01c-3.24 1.43-6.1 3.38-8.55 5.82-2.44 2.45-4.39 5.33-5.82 8.61v0.01c-1.44 3.28-2.17 6.79-2.17 10.47 0 3.69 0.73 7.2 2.17 10.48 1.43 3.24 3.38 6.1 5.82 8.55 2.45 2.44 5.31 4.39 8.55 5.82h0.01c3.32 1.44 6.85 2.17 10.54 2.17 2.2 0 4.29-0.26 6.26-0.81h0.01l0.02-0.01c1.91-0.56 3.68-1.21 5.3-1.97l0.02-0.01 0.02-0.01c1.58-0.79 2.97-1.59 4.17-2.41l0.02-0.01 0.02-0.02c1.13-0.81 2.02-1.47 2.68-1.99l0.73-0.57v-20.65h-17.81v6.63h11.18v10.95c-2.13 1.57-4.15 2.7-6.01 3.26l-0.01 0.01c-2.14 0.65-4.33 0.98-6.6 0.98-2.89 0-5.55-0.53-8.03-1.58-2.51-1.08-4.66-2.52-6.5-4.35-1.83-1.84-3.27-3.99-4.34-6.5-1.06-2.48-1.59-5.12-1.59-7.96 0-2.89 0.53-5.54 1.59-8.02 1.06-2.51 2.5-4.65 4.33-6.48v-0.01c1.89-1.84 4.06-3.29 6.58-4.36 2.48-1.06 5.11-1.59 7.96-1.59 2.5 0 4.81 0.34 6.93 0.99h0.01c2.12 0.64 4.08 1.7 5.91 3.2l1.22 1 4.97-4.14-1.75-1.47c-4.92-4.1-10.78-6.2-17.29-6.2zm26.85 0v54.1h6.56v-54.1h-1.9-4.66zm39.08 0c-3.69 0-7.22 0.72-10.54 2.17h-0.01c-3.24 1.43-6.1 3.38-8.55 5.82-2.45 2.45-4.39 5.34-5.82 8.62v0.01c-1.4 3.28-2.1 6.78-2.1 10.46 0 3.69 0.72 7.2 2.17 10.48 1.43 3.24 3.38 6.1 5.82 8.55 2.45 2.44 5.31 4.39 8.55 5.82 3.28 1.44 6.79 2.17 10.48 2.17 6.17 0 11.72-1.85 16.37-5.5l1.79-1.4-4.78-4.29-1.25 0.91c-1.8 1.31-3.66 2.23-5.63 2.79-2 0.57-4.16 0.86-6.5 0.86-2.84 0-5.48-0.51-7.96-1.52-2.46-1.07-4.62-2.51-6.5-4.35-1.83-1.84-3.28-3.96-4.35-6.43-1.05-2.48-1.59-5.13-1.59-8.02 0-2.94 0.54-5.61 1.59-8.09 1.08-2.52 2.52-4.67 4.35-6.5 1.84-1.84 3.97-3.28 6.44-4.35 2.48-1.06 5.13-1.59 8.02-1.59 2.52 0 4.78 0.32 6.81 0.93 2 0.6 3.9 1.59 5.74 3.03l1.36 1.05 4.35-4.52-1.58-1.31c-4.62-3.85-10.28-5.8-16.68-5.8zm95.89 0v54.1h6.56v-54.1h-1.91-4.65zm16.61 0v1.91 52.19h6.62v-23.24h17.1l12.19 23.24h7.32l-12.4-23.64c1.7-0.31 3.35-0.74 4.84-1.45 0.97-0.46 1.92-1.04 2.86-1.73l0.02-0.02 0.03-0.02c0.99-0.79 1.88-1.73 2.64-2.8l0.02-0.02 0.01-0.01c0.78-1.15 1.39-2.44 1.84-3.84l0.01-0.01v-0.01c0.47-1.52 0.69-3.21 0.69-5.05s-0.22-3.51-0.69-5.03c-0.39-1.42-0.95-2.7-1.69-3.81-0.67-1.13-1.48-2.12-2.45-2.92-0.85-0.75-1.76-1.38-2.71-1.86-2.18-1.11-4.62-1.73-7.25-1.88h-0.06-28.94zm52.44 0v1.91 52.19h6.63v-23.24h17.09l12.19 23.24h7.32l-12.4-23.64c1.71-0.31 3.35-0.74 4.84-1.45 0.97-0.46 1.92-1.04 2.86-1.73l0.03-0.02 0.02-0.02c0.99-0.79 1.88-1.73 2.65-2.8l0.01-0.02 0.01-0.01c0.78-1.15 1.39-2.44 1.85-3.84v-0.01-0.01c0.47-1.52 0.69-3.21 0.69-5.05s-0.22-3.51-0.68-5.03c-0.4-1.42-0.96-2.7-1.69-3.81-0.67-1.13-1.49-2.12-2.45-2.92-0.86-0.75-1.77-1.38-2.72-1.86-2.18-1.11-4.61-1.73-7.25-1.88h-0.05-28.95zm74.78 0c-3.73 0-7.27 0.72-10.55 2.17-3.25 1.43-6.11 3.41-8.56 5.9-2.4 2.45-4.3 5.34-5.68 8.62-1.4 3.28-2.1 6.78-2.1 10.46s0.7 7.18 2.1 10.46v0.01l0.01 0.01c1.42 3.23 3.34 6.09 5.74 8.53v0.01l0.01 0.01c2.44 2.44 5.31 4.39 8.55 5.82h0.01 0.01c3.27 1.4 6.78 2.1 10.46 2.1 3.67 0 7.16-0.7 10.39-2.1h0.01 0.01c3.24-1.43 6.08-3.38 8.49-5.83 2.44-2.45 4.37-5.32 5.75-8.56 1.4-3.28 2.1-6.78 2.1-10.46s-0.7-7.18-2.1-10.46c-1.38-3.28-3.27-6.17-5.67-8.61-2.41-2.5-5.25-4.48-8.5-5.91-3.24-1.45-6.76-2.17-10.48-2.17zm34.29 0v1.91 52.19h6.63v-23.24h17.1l12.18 23.24h7.32l-12.4-23.64c1.71-0.31 3.35-0.74 4.84-1.45 0.97-0.46 1.92-1.04 2.86-1.73l0.03-0.02 0.02-0.02c1-0.79 1.88-1.73 2.65-2.8l0.01-0.02 0.01-0.01c0.78-1.15 1.4-2.44 1.85-3.84v-0.01-0.01c0.48-1.52 0.69-3.21 0.69-5.05s-0.22-3.51-0.68-5.03c-0.4-1.42-0.95-2.7-1.69-3.81-0.67-1.13-1.49-2.11-2.45-2.92-0.86-0.75-1.76-1.38-2.72-1.86-2.18-1.11-4.61-1.73-7.25-1.88h-0.05-28.95zm-427.58 0.39l-26.74 20.46-25.82-20.44-3.09 1.5v52.19h6.62v-41.77l22.25 17.07 23.22-17.15v41.85h6.63v-52.19l-3.07-1.52zm236.32 0l-26.74 20.46-25.82-20.44-3.09 1.5v52.19h6.63v-41.77l22.24 17.07 23.22-17.15v41.85h6.63v-52.19l-3.07-1.52zm-202.97 0.68l-25.84 53.03h3.05 3.86l6.56-13.19h28.17l6.56 13.19h6.91l-25.84-53.03h-3.43zm239.34 5.55h22.2c1.66 0.08 3.04 0.46 4.23 1.1 0.5 0.29 1.02 0.66 1.56 1.12l0.04 0.03 0.03 0.03c0.42 0.33 0.8 0.76 1.14 1.34l0.02 0.03 0.02 0.04c0.36 0.56 0.67 1.26 0.89 2.12l0.01 0.04 0.02 0.04c0.24 0.8 0.38 1.8 0.38 2.99s-0.14 2.19-0.38 2.99l-0.01 0.03-0.01 0.03c-0.22 0.81-0.53 1.5-0.9 2.07l-0.02 0.04-0.02 0.03c-0.34 0.58-0.74 1.05-1.18 1.44-0.53 0.4-1.03 0.73-1.51 0.97l-0.03 0.02-0.03 0.01c-1.19 0.65-2.58 1.03-4.25 1.11h-22.2v-17.62zm52.45 0h22.19c1.66 0.08 3.05 0.46 4.23 1.1 0.5 0.29 1.03 0.66 1.57 1.12l0.03 0.03 0.03 0.03c0.42 0.33 0.8 0.76 1.14 1.34l0.02 0.03 0.02 0.04c0.37 0.56 0.67 1.26 0.9 2.12l0.01 0.04 0.01 0.04c0.24 0.8 0.39 1.8 0.39 2.99s-0.15 2.19-0.39 2.99l-0.01 0.03-0.01 0.03c-0.22 0.81-0.52 1.5-0.9 2.07l-0.02 0.04-0.02 0.03c-0.34 0.58-0.73 1.05-1.18 1.44-0.52 0.4-1.03 0.73-1.51 0.97l-0.03 0.02-0.03 0.01c-1.19 0.65-2.58 1.03-4.25 1.11h-22.19v-17.62zm68.15 0c2.78 0 5.35 0.55 7.78 1.65 2.47 1.11 4.58 2.59 6.37 4.46l0.02 0.02 0.01 0.01c1.84 1.84 3.28 3.99 4.35 6.5 1.06 2.49 1.59 5.08 1.59 7.82 0 2.75-0.53 5.33-1.59 7.83-1.07 2.46-2.52 4.62-4.36 6.51-1.8 1.83-3.91 3.3-6.39 4.41-2.43 1.1-5 1.64-7.78 1.64-2.79 0-5.39-0.52-7.87-1.58-2.47-1.11-4.61-2.58-6.45-4.41-1.84-1.89-3.28-4.04-4.35-6.51h-0.01v-0.01c-1.06-2.48-1.58-5.09-1.58-7.88s0.53-5.4 1.59-7.89c1.07-2.51 2.51-4.66 4.35-6.5l0.01-0.01c1.84-1.88 3.96-3.34 6.42-4.41h0.01 0.01c2.48-1.1 5.08-1.65 7.87-1.65zm40.92 0h22.19c1.66 0.08 3.05 0.46 4.23 1.1 0.5 0.29 1.03 0.66 1.57 1.12l0.03 0.03 0.03 0.03c0.43 0.33 0.8 0.76 1.14 1.34l0.02 0.03 0.03 0.04c0.36 0.56 0.67 1.26 0.89 2.12l0.01 0.04 0.01 0.04c0.25 0.8 0.39 1.8 0.39 2.99s-0.14 2.19-0.39 2.99l-0.01 0.03v0.03c-0.23 0.81-0.53 1.5-0.9 2.07l-0.03 0.04-0.02 0.03c-0.34 0.59-0.73 1.05-1.18 1.44-0.52 0.4-1.03 0.73-1.51 0.97l-0.03 0.02-0.03 0.01c-1.19 0.65-2.58 1.03-4.25 1.11h-22.19v-17.62zm-399.15 5.32l11.02 22.61h-22.09l11.07-22.61zm151.77 42.96c-0.07 0-0.18 0.01-0.24 0.02s-0.17 0.04-0.26 0.07c-0.11 0.04-2.67 1.5-10.64 6.08-5.77 3.32-10.61 6.09-10.75 6.17-0.15 0.07-0.61 0.28-1.02 0.47s-1.02 0.48-1.36 0.65c-0.33 0.16-0.75 0.38-0.93 0.48-0.18 0.09-0.41 0.22-0.51 0.28-0.1 0.07-0.32 0.21-0.48 0.32-0.17 0.1-0.4 0.27-0.52 0.36-0.12 0.1-0.3 0.26-0.39 0.35-0.1 0.1-0.23 0.24-0.3 0.33-0.06 0.08-0.15 0.2-0.19 0.27-0.04 0.06-0.09 0.17-0.12 0.24-0.02 0.07-0.08 0.27-0.12 0.44s-0.1 0.45-0.13 0.63c-0.03 0.19-0.07 0.48-0.09 0.66s-0.05 0.44-0.06 0.58-0.03 0.44-0.04 0.68c-0.01 0.23-0.02 0.63-0.02 0.88s0.01 0.7 0.02 1 0.03 0.78 0.05 1.06c0.01 0.29 0.06 1.04 0.1 1.66 0.04 0.63 0.09 1.38 0.11 1.68l0.04 0.53-0.01 6.27-0.01 6.28 0.03 0.13c0.02 0.07 0.07 0.21 0.12 0.31 0.04 0.09 0.12 0.24 0.18 0.32s0.22 0.26 0.36 0.41c0.14 0.14 0.34 0.32 0.43 0.4 0.1 0.07 0.29 0.21 0.42 0.3s0.35 0.24 0.49 0.33c0.15 0.08 0.41 0.23 0.58 0.33 0.17 0.09 0.52 0.28 0.77 0.41 0.26 0.13 0.77 0.37 1.13 0.55 0.37 0.17 0.78 0.37 0.92 0.44 0.13 0.07 2.93 1.7 6.22 3.62 3.29 1.91 8.09 4.7 10.66 6.2 2.58 1.5 4.73 2.75 4.8 2.79 0.06 0.03 0.17 0.07 0.23 0.1 0.08 0.02 0.19 0.04 0.33 0.05 0.14 0 0.23 0 0.33-0.02 0.08-0.02 0.21-0.06 0.29-0.1 0.08-0.03 4.78-2.88 10.44-6.33 5.67-3.46 10.42-6.34 10.57-6.42 0.14-0.08 0.76-0.39 1.36-0.69s1.25-0.63 1.46-0.74c0.2-0.12 0.52-0.3 0.7-0.41s0.46-0.28 0.61-0.38 0.37-0.27 0.5-0.36c0.12-0.1 0.32-0.27 0.43-0.38 0.12-0.11 0.26-0.26 0.32-0.33 0.06-0.08 0.16-0.21 0.21-0.29s0.12-0.21 0.15-0.29 0.08-0.25 0.11-0.37c0.04-0.13 0.08-0.34 0.11-0.48 0.02-0.13 0.07-0.39 0.09-0.58 0.03-0.18 0.06-0.48 0.08-0.66s0.04-0.52 0.05-0.76c0.01-0.23 0.02-0.65 0.02-0.91 0-0.27-0.01-0.72-0.02-1.01-0.01-0.28-0.04-0.75-0.05-1.03-0.02-0.28-0.05-0.9-0.08-1.36-0.04-0.46-0.07-1.05-0.09-1.31-0.01-0.25-0.04-0.67-0.05-0.92-0.02-0.34-0.02-1.98-0.01-6.29l0.01-5.84-0.03-0.15c-0.03-0.09-0.08-0.23-0.13-0.33-0.05-0.09-0.14-0.24-0.21-0.34-0.07-0.09-0.22-0.26-0.33-0.37s-0.31-0.29-0.45-0.4c-0.13-0.11-0.37-0.28-0.53-0.39-0.15-0.1-0.43-0.28-0.61-0.39-0.19-0.11-0.49-0.28-0.68-0.38-0.19-0.11-0.83-0.44-1.43-0.74-0.6-0.29-1.17-0.59-1.27-0.64-0.1-0.06-0.62-0.37-1.16-0.69s-1.67-1-2.51-1.49c-0.84-0.5-2.49-1.48-3.67-2.18-1.18-0.69-2.63-1.55-3.22-1.9s-1.6-0.95-2.25-1.34-1.63-0.97-2.17-1.3c-0.55-0.34-1.32-0.8-1.71-1.04s-1.12-0.68-1.62-0.99c-0.49-0.3-1.28-0.79-1.74-1.08-0.47-0.29-0.89-0.55-0.95-0.58s-0.15-0.06-0.19-0.08c-0.05-0.02-0.15-0.04-0.21-0.05-0.07-0.01-0.19-0.02-0.27-0.02zm-370.92 0.41v6.63h28.01c1.66 0.08 3.05 0.46 4.23 1.1 0.51 0.29 1.03 0.66 1.57 1.12l0.03 0.03 0.03 0.02c0.44 0.35 0.86 0.81 1.25 1.41 0.37 0.56 0.67 1.26 0.9 2.13l0.01 0.03 0.01 0.04c0.24 0.81 0.38 1.8 0.38 2.99s-0.14 2.19-0.38 3l-0.01 0.02-0.01 0.03c-0.22 0.82-0.52 1.5-0.9 2.08-0.39 0.61-0.82 1.1-1.29 1.5-0.52 0.41-1.03 0.73-1.51 0.98l-0.03 0.01-0.03 0.02c-1.19 0.65-2.58 1.02-4.25 1.1h-28.01v29.87h6.62v-23.24h22.46 0.06c2.47-0.15 4.77-0.79 6.82-1.91 0.89-0.47 1.75-1.07 2.55-1.78h0.01c0.92-0.81 1.7-1.79 2.33-2.89 0.67-1.13 1.2-2.4 1.59-3.78v-0.01c0.42-1.5 0.61-3.17 0.61-5s-0.19-3.49-0.61-4.99c-0.39-1.42-0.92-2.68-1.6-3.8-0.62-1.12-1.39-2.12-2.31-2.93-0.81-0.76-1.67-1.39-2.58-1.87-2.04-1.12-4.34-1.75-6.81-1.9l-0.06-0.01h-0.06-29.02zm113.49 0c-3.69 0-7.22 0.73-10.54 2.17h-0.01v0.01c-3.24 1.43-6.1 3.37-8.55 5.82-2.45 2.44-4.39 5.33-5.82 8.62v0.01h-0.01c-1.39 3.28-2.09 6.78-2.09 10.46s0.72 7.2 2.17 10.48c1.43 3.24 3.38 6.1 5.82 8.54 2.44 2.45 5.31 4.39 8.55 5.82 3.28 1.45 6.79 2.18 10.48 2.18 6.17 0 11.71-1.85 16.37-5.5l1.79-1.4-4.78-4.29-1.25 0.91c-1.8 1.3-3.67 2.22-5.63 2.79-2 0.57-4.16 0.86-6.5 0.86-2.85 0-5.49-0.51-7.97-1.53-2.46-1.07-4.62-2.51-6.5-4.35-1.83-1.83-3.27-3.96-4.34-6.42-1.05-2.48-1.59-5.14-1.59-8.03 0-2.93 0.54-5.61 1.59-8.09 1.07-2.51 2.52-4.66 4.35-6.49 1.84-1.84 3.97-3.28 6.43-4.35 2.48-1.06 5.14-1.59 8.03-1.59 2.51 0 4.78 0.32 6.81 0.92 1.99 0.6 3.9 1.6 5.74 3.03l1.36 1.05 4.35-4.51-1.58-1.32c-4.62-3.85-10.28-5.8-16.68-5.8zm27.1 0v54.11h1.9 4.72v-23.31l26.85 23.31h0.71 0.07 4.28l1.24-3.36-27.83-23.85 27.82-23.53-1.23-3.37h-4.91l-27 22.55v-22.55h-6.62zm124.85 0c-3.69 0-7.22 0.73-10.54 2.17l-0.01 0.01c-3.24 1.43-6.1 3.37-8.55 5.82-2.44 2.44-4.39 5.33-5.82 8.61-1.44 3.28-2.17 6.79-2.17 10.48 0 3.68 0.73 7.2 2.17 10.48 1.43 3.24 3.38 6.1 5.82 8.54 2.45 2.45 5.31 4.39 8.55 5.82l0.01 0.01c3.32 1.44 6.85 2.17 10.54 2.17 2.2 0 4.29-0.27 6.26-0.81l0.02-0.01h0.01c1.91-0.56 3.68-1.22 5.3-1.98l0.02-0.01 0.02-0.01c1.58-0.79 2.97-1.58 4.17-2.4l0.02-0.02 0.02-0.01c1.13-0.81 2.01-1.47 2.68-1.99l0.72-0.58v-20.64h-17.8v6.63h11.18v10.94c-2.13 1.58-4.15 2.71-6.01 3.27h-0.01c-2.14 0.66-4.33 0.99-6.6 0.99-2.89 0-5.55-0.53-8.03-1.59-2.51-1.07-4.66-2.51-6.5-4.35-1.83-1.83-3.27-3.98-4.34-6.49-1.06-2.49-1.59-5.12-1.59-7.96 0-2.89 0.53-5.54 1.59-8.03 1.06-2.51 2.51-4.65 4.34-6.48 1.88-1.84 4.06-3.29 6.57-4.36 2.48-1.06 5.12-1.59 7.96-1.59 2.51 0 4.81 0.33 6.93 0.99h0.01c2.12 0.64 4.08 1.69 5.91 3.2l1.21 1 4.98-4.15-1.75-1.46c-4.92-4.11-10.78-6.21-17.29-6.21zm26.85 0v54.1h34.55v-6.62h-27.92v-16.6l24.17 0.06v-6.76h-24.17v-17.55h27.92v-6.63h-1.91-32.64zm376.24 0c-3.69 0-7.22 0.73-10.54 2.17l-0.01 0.01c-3.24 1.43-6.1 3.37-8.54 5.82-2.45 2.44-4.4 5.33-5.82 8.61l-0.01 0.01c-1.44 3.28-2.16 6.79-2.16 10.47s0.72 7.2 2.17 10.48c1.43 3.24 3.37 6.1 5.82 8.54 2.44 2.45 5.3 4.39 8.54 5.82l0.01 0.01c3.32 1.44 6.85 2.17 10.54 2.17 2.2 0 4.3-0.27 6.26-0.81l0.02-0.01h0.01c1.92-0.56 3.68-1.22 5.3-1.98l0.02-0.01 0.02-0.01c1.58-0.79 2.97-1.58 4.17-2.4l0.02-0.02 0.02-0.01c1.13-0.81 2.02-1.47 2.68-1.99l0.73-0.58v-20.64h-17.81v6.63h11.18v10.94c-2.12 1.58-4.15 2.71-6.01 3.27h-0.01c-2.14 0.66-4.33 0.99-6.6 0.99-2.89 0-5.54-0.53-8.03-1.59-2.51-1.07-4.66-2.51-6.49-4.35-1.84-1.83-3.28-3.98-4.35-6.49-1.06-2.49-1.59-5.12-1.59-7.96 0-2.89 0.53-5.54 1.59-8.03 1.07-2.5 2.51-4.65 4.33-6.48 1.89-1.84 4.06-3.29 6.58-4.36 2.49-1.06 5.12-1.59 7.96-1.59 2.51 0 4.81 0.33 6.94 0.99h0.01c2.12 0.64 4.07 1.69 5.9 3.2l1.22 1 4.97-4.15-1.75-1.46c-4.92-4.11-10.78-6.21-17.29-6.21zm26.86 0v54.1h34.54v-6.62h-27.92v-16.6l24.17 0.06v-6.76h-24.17v-17.55h27.92v-6.63h-1.9-32.64zm44.72 0v1.91 52.2h6.63v-23.24h17.09l12.19 23.24h7.32l-12.4-23.65c1.71-0.3 3.35-0.74 4.84-1.45 0.97-0.46 1.92-1.04 2.86-1.73l0.03-0.01 0.02-0.02c1-0.79 1.88-1.73 2.65-2.8l0.01-0.02 0.01-0.02c0.78-1.14 1.4-2.43 1.85-3.84v-0.01-0.01c0.48-1.51 0.69-3.2 0.69-5.05 0-1.83-0.22-3.51-0.68-5.02-0.4-1.42-0.96-2.7-1.69-3.82-0.67-1.12-1.49-2.11-2.45-2.92-0.86-0.75-1.76-1.37-2.72-1.85-2.17-1.11-4.61-1.74-7.25-1.88l-0.05-0.01h-28.95zm-163.02 0.07v39.53l-35.72-38.91-3.31 1.29v52.13h1.9 4.72v-40.04l35.86 39.41 3.31-1.28v-52.13h-6.76zm-106.18 0.33l-26.75 20.46-25.82-20.44-3.09 1.49v52.2h6.63v-41.77l22.24 17.07 23.23-17.16v41.86h6.62v-52.2l-3.06-1.51zm-409.63 0.68l-25.85 53.03h3.05 3.86l6.57-13.2h28.17l6.56 13.2h6.91l-25.85-53.03h-3.42zm149.87 0l-25.84 53.03h3.05 3.86l6.56-13.2h28.17l6.56 13.2h6.91l-25.84-53.03h-3.43zm293.11 0l-25.85 53.03h3.05 3.86l6.57-13.2h28.17l6.56 13.2h6.91l-25.84-53.03h-3.43zm109.98 0l-25.84 53.03h3.05 3.86l6.56-13.2h28.18l6.56 13.2h6.91l-25.85-53.03h-3.43zm-243.33 2.56s1.83 1.1 4.06 2.43c2.22 1.34 4.04 2.44 4.03 2.44-0.01 0.01-4.77 3.02-10.58 6.7l-10.55 6.69-2.75-1.63c-1.52-0.89-2.99-1.76-3.28-1.93-0.28-0.17-1.12-0.66-1.85-1.09s-1.33-0.79-1.34-0.8 0.07-0.06 0.17-0.12 0.38-0.21 0.61-0.35c0.24-0.13 0.75-0.43 1.14-0.65 0.39-0.23 2.92-1.68 5.61-3.23 2.7-1.55 5.07-2.91 5.27-3.03 0.2-0.11 2.4-1.38 4.89-2.81 2.48-1.42 4.53-2.6 4.54-2.61s0.02-0.01 0.03-0.01zm375.83 2.99h22.19c1.66 0.08 3.05 0.46 4.23 1.1 0.51 0.29 1.03 0.66 1.57 1.12l0.03 0.03 0.03 0.02c0.42 0.33 0.8 0.77 1.14 1.34l0.02 0.04 0.03 0.03c0.36 0.56 0.66 1.26 0.89 2.13l0.01 0.03 0.01 0.04c0.25 0.81 0.39 1.8 0.39 2.99s-0.14 2.19-0.39 3l-0.01 0.02v0.03c-0.23 0.82-0.53 1.5-0.9 2.08l-0.03 0.03-0.02 0.04c-0.34 0.58-0.73 1.05-1.18 1.43-0.52 0.41-1.03 0.74-1.51 0.98l-0.03 0.01-0.03 0.02c-1.19 0.65-2.58 1.02-4.25 1.1h-22.19v-17.61zm-364.17 4.01c0.01 0 2.31 1.38 5.11 3.06s5.09 3.06 5.08 3.07-3.76 2.2-8.34 4.87-9.5 5.55-10.94 6.38c-1.43 0.84-2.62 1.53-2.63 1.53-0.01 0.01-0.61-0.34-1.34-0.77-0.72-0.43-1.54-0.91-1.82-1.07-0.27-0.17-1.09-0.65-1.81-1.08-0.72-0.42-1.48-0.87-1.7-1-0.21-0.13-0.91-0.54-1.56-0.92-0.89-0.53-1.16-0.7-1.15-0.72 0.02-0.01 0.56-0.35 1.21-0.77 0.66-0.41 2-1.26 2.98-1.88 0.99-0.63 2-1.27 2.25-1.43 0.25-0.15 1.35-0.85 2.43-1.53 1.09-0.69 2.19-1.39 2.44-1.55 0.26-0.16 0.64-0.4 0.85-0.53 0.21-0.14 0.54-0.35 0.74-0.47 0.2-0.13 0.57-0.36 0.82-0.52 0.26-0.17 1.14-0.73 1.97-1.25 0.82-0.52 2.26-1.43 3.19-2.01 0.93-0.59 1.81-1.15 1.95-1.24 0.15-0.1 0.27-0.17 0.27-0.17zm123.4 1.31l11.01 22.61h-22.08l11.07-22.61zm109.98 0l11.02 22.61h-22.08l11.06-22.61zm-552.96 0l11.01 22.61h-22.08l11.07-22.61zm149.87 0l11.02 22.61h-22.09l11.07-22.61zm133.94 7.71l0.06 0.03c0.03 0.02 5.02 2.97 11.09 6.56 6.06 3.58 11.03 6.51 11.03 6.52 0.01 0 0 3.73-0.01 8.28-0.01 4.56-0.03 8.34-0.04 8.41l-0.01 0.12-6.49-3.79c-3.57-2.07-6.85-3.98-7.28-4.24-0.44-0.25-1.77-1.02-2.96-1.71-1.19-0.7-2.9-1.7-3.81-2.22l-1.64-0.96v-1.38c0.01-0.75 0.02-3.57 0.02-6.25 0.01-2.69 0.02-5.89 0.03-7.13l0.01-2.24zm47.76 0.37s-0.01 3.63-0.02 8.07c-0.02 6.03-0.03 8.07-0.05 8.09-0.01 0.01-3.03 1.85-6.71 4.09s-8.59 5.23-10.91 6.65l-4.23 2.57v-0.29c-0.01-0.16 0-3.92 0.02-8.35 0.02-7.08 0.02-8.07 0.05-8.09 0.01-0.01 4.45-2.6 9.85-5.76 5.4-3.15 10.31-6.01 10.91-6.36 0.59-0.34 1.08-0.63 1.09-0.62zm-46.39 63.6v18.02h1.01v-15.67l8.66 6.65 9-6.65v15.67h1.01v-18.02l-10.01 7.65-9.67-7.65zm24.66 0v18.02h1.01v-15.67l8.66 6.65 9-6.65v15.67h1.01v-18.02l-10.01 7.65-9.67-7.65zm24.66 0v1h9.38c0.69 0.04 1.29 0.2 1.82 0.49 0.23 0.12 0.45 0.28 0.67 0.48 0.23 0.17 0.43 0.4 0.61 0.67 0.17 0.27 0.31 0.59 0.4 0.96 0.12 0.36 0.17 0.79 0.17 1.27s-0.05 0.9-0.17 1.27c-0.09 0.35-0.23 0.67-0.4 0.94-0.18 0.27-0.38 0.5-0.61 0.69-0.22 0.18-0.44 0.32-0.67 0.43-0.53 0.29-1.13 0.45-1.82 0.48h-9.38v9.34h1v-8.33h8.72c0.8-0.05 1.51-0.25 2.15-0.6 0.28-0.14 0.54-0.33 0.8-0.55 0.27-0.24 0.5-0.53 0.69-0.86 0.21-0.36 0.38-0.75 0.51-1.2 0.12-0.47 0.19-1 0.19-1.61s-0.07-1.15-0.19-1.61c-0.13-0.46-0.3-0.86-0.51-1.2-0.19-0.35-0.42-0.65-0.69-0.89-0.26-0.24-0.52-0.43-0.8-0.57-0.64-0.36-1.35-0.55-2.15-0.6h-9.72zm18.56 0v18.02h1.01v-15.67l8.66 6.65 9-6.65v15.67h1.01v-18.02l-10.01 7.65-9.67-7.65z"
     fill="url(#gradient)" /></svg>